<svg width="380" height="380" viewBox="0 0 380 380" fill="none" xmlns="http://www.w3.org/2000/svg">
<path d="M379.5 190C379.5 294.658 294.658 379.5 190 379.5C85.342 379.5 0.5 294.658 0.5 190C0.5 85.3423 85.342 0.500244 190 0.500244C294.658 0.500244 379.5 85.3423 379.5 190Z" stroke="#FD8E28"/>
<rect x="50" y="50.0002" width="280" height="280" rx="140" fill="#FD8E28"/>
<path d="M144.26 181.5C144.26 176.38 144.74 171.57 145.7 167.068C146.66 162.567 148.175 158.247 150.244 154.108C152.335 149.948 155.076 145.831 158.468 141.756L160.452 143.868H134.98V136.7H165.444V143.164C162.82 146.044 160.623 149.191 158.852 152.604C157.103 155.996 155.716 159.452 154.692 162.972C153.668 166.471 152.932 169.82 152.484 173.02C152.036 176.199 151.812 179.026 151.812 181.5H144.26ZM185.938 181.5V146.364L176.21 148.988V141.82L193.554 136.636V181.5H185.938ZM174.802 181.5V174.204H204.498V181.5H174.802ZM210.655 182.268L241.183 135.932H247.391L216.863 182.268H210.655ZM219.167 156.604C216.927 156.604 215.135 156.092 213.791 155.068C212.468 154.023 211.508 152.711 210.911 151.132C210.314 149.532 210.015 147.9 210.015 146.236C210.015 144.743 210.314 143.207 210.911 141.628C211.508 140.028 212.468 138.684 213.791 137.596C215.135 136.487 216.927 135.932 219.167 135.932C221.386 135.932 223.156 136.455 224.479 137.5C225.823 138.524 226.783 139.826 227.359 141.404C227.956 142.983 228.255 144.594 228.255 146.236C228.255 147.815 227.967 149.404 227.391 151.004C226.815 152.604 225.866 153.938 224.543 155.004C223.22 156.071 221.428 156.604 219.167 156.604ZM219.167 152.124C220.511 152.124 221.546 151.548 222.271 150.396C223.018 149.244 223.391 147.858 223.391 146.236C223.391 144.466 223.018 143.058 222.271 142.012C221.524 140.946 220.49 140.412 219.167 140.412C217.802 140.412 216.746 140.988 215.999 142.14C215.252 143.271 214.879 144.636 214.879 146.236C214.879 147.986 215.252 149.404 215.999 150.492C216.746 151.58 217.802 152.124 219.167 152.124ZM239.071 182.268C236.831 182.268 235.039 181.756 233.695 180.732C232.372 179.687 231.412 178.375 230.815 176.796C230.218 175.196 229.919 173.564 229.919 171.9C229.919 170.407 230.218 168.871 230.815 167.292C231.412 165.692 232.372 164.348 233.695 163.26C235.039 162.151 236.831 161.596 239.071 161.596C241.29 161.596 243.06 162.119 244.383 163.164C245.727 164.188 246.687 165.49 247.263 167.068C247.86 168.647 248.159 170.258 248.159 171.9C248.159 173.479 247.871 175.068 247.295 176.668C246.719 178.268 245.77 179.602 244.447 180.668C243.124 181.735 241.332 182.268 239.071 182.268ZM239.071 177.788C240.415 177.788 241.45 177.212 242.175 176.06C242.922 174.908 243.295 173.522 243.295 171.9C243.295 170.13 242.922 168.722 242.175 167.676C241.428 166.61 240.394 166.076 239.071 166.076C237.706 166.076 236.65 166.652 235.903 167.804C235.156 168.935 234.783 170.3 234.783 171.9C234.783 173.65 235.156 175.068 235.903 176.156C236.65 177.244 237.706 177.788 239.071 177.788Z" fill="black"/>
<path d="M113.449 228.5V220.1H118.483V221.18H114.583V223.622H117.211V224.696H114.583V227.42H118.741V228.5H113.449ZM123.022 228.644C122.594 228.644 122.214 228.568 121.882 228.416C121.55 228.26 121.288 228.03 121.096 227.726C120.904 227.422 120.808 227.042 120.808 226.586C120.808 226.114 120.922 225.73 121.15 225.434C121.382 225.134 121.678 224.914 122.038 224.774C122.402 224.63 122.784 224.558 123.184 224.558C123.488 224.558 123.77 224.588 124.03 224.648C124.294 224.704 124.554 224.8 124.81 224.936V224.498C124.81 224.154 124.754 223.888 124.642 223.7C124.53 223.512 124.376 223.382 124.18 223.31C123.988 223.234 123.772 223.196 123.532 223.196C123.2 223.196 122.86 223.26 122.512 223.388C122.164 223.512 121.856 223.662 121.588 223.838L121.258 222.914C121.538 222.742 121.886 222.584 122.302 222.44C122.722 222.296 123.166 222.224 123.634 222.224C123.882 222.224 124.136 222.252 124.396 222.308C124.656 222.364 124.898 222.47 125.122 222.626C125.346 222.782 125.526 223.006 125.662 223.298C125.802 223.59 125.872 223.97 125.872 224.438V228.5H124.81V227.96C124.606 228.148 124.356 228.31 124.06 228.446C123.764 228.578 123.418 228.644 123.022 228.644ZM123.19 227.672C123.562 227.672 123.882 227.59 124.15 227.426C124.422 227.262 124.642 227.084 124.81 226.892V225.902C124.63 225.794 124.408 225.702 124.144 225.626C123.88 225.55 123.61 225.512 123.334 225.512C122.942 225.512 122.598 225.598 122.302 225.77C122.01 225.942 121.864 226.214 121.864 226.586C121.864 226.906 121.98 227.168 122.212 227.372C122.444 227.572 122.77 227.672 123.19 227.672ZM127.758 228.5V227.516H129.042V223.352H127.758V222.368H130.098V223.736L130.026 223.562C130.138 223.294 130.314 223.06 130.554 222.86C130.798 222.656 131.08 222.5 131.4 222.392C131.72 222.28 132.05 222.224 132.39 222.224C132.702 222.224 132.97 222.254 133.194 222.314C133.422 222.37 133.604 222.44 133.74 222.524V224.684H132.642V222.854L133.038 223.364C132.93 223.336 132.822 223.318 132.714 223.31C132.606 223.298 132.498 223.292 132.39 223.292C131.954 223.292 131.568 223.362 131.232 223.502C130.9 223.638 130.64 223.838 130.452 224.102C130.264 224.366 130.17 224.686 130.17 225.062V227.516H131.946V228.5H127.758ZM138.795 228.644C138.215 228.644 137.799 228.504 137.547 228.224C137.295 227.94 137.169 227.558 137.169 227.078V223.352H135.801V222.368H137.169V220.376L138.279 219.836V222.368H140.349V223.352H138.279V226.766C138.279 226.938 138.303 227.09 138.351 227.222C138.399 227.354 138.487 227.456 138.615 227.528C138.743 227.6 138.925 227.636 139.161 227.636C139.425 227.636 139.641 227.602 139.809 227.534C139.981 227.466 140.135 227.392 140.271 227.312L140.139 228.368C139.975 228.452 139.789 228.518 139.581 228.566C139.377 228.618 139.115 228.644 138.795 228.644ZM143.1 228.5V220.352L144.21 219.836V223.01C144.598 222.486 145.164 222.224 145.908 222.224C146.372 222.224 146.774 222.314 147.114 222.494C147.454 222.67 147.716 222.958 147.9 223.358C148.084 223.754 148.176 224.278 148.176 224.93V228.5H147.066V224.9C147.066 224.292 146.93 223.866 146.658 223.622C146.39 223.378 146.064 223.256 145.68 223.256C145.408 223.256 145.16 223.306 144.936 223.406C144.716 223.502 144.54 223.668 144.408 223.904C144.276 224.14 144.21 224.464 144.21 224.876V228.5H143.1ZM160.409 228.644C159.933 228.644 159.489 228.542 159.077 228.338C158.669 228.134 158.333 227.876 158.069 227.564L158.819 226.892C158.999 227.084 159.231 227.262 159.515 227.426C159.803 227.59 160.125 227.672 160.481 227.672C160.797 227.672 161.061 227.612 161.273 227.492C161.489 227.368 161.597 227.18 161.597 226.928C161.597 226.736 161.529 226.574 161.393 226.442C161.261 226.31 161.079 226.192 160.847 226.088C160.619 225.984 160.361 225.878 160.073 225.77C159.713 225.63 159.387 225.48 159.095 225.32C158.803 225.16 158.571 224.962 158.399 224.726C158.227 224.49 158.141 224.196 158.141 223.844C158.141 223.508 158.237 223.22 158.429 222.98C158.625 222.736 158.889 222.55 159.221 222.422C159.557 222.29 159.933 222.224 160.349 222.224C160.829 222.224 161.251 222.312 161.615 222.488C161.979 222.664 162.283 222.894 162.527 223.178L161.783 223.796C161.627 223.648 161.425 223.512 161.177 223.388C160.933 223.26 160.635 223.196 160.283 223.196C159.963 223.196 159.703 223.252 159.503 223.364C159.307 223.476 159.209 223.638 159.209 223.85C159.209 224.014 159.273 224.154 159.401 224.27C159.533 224.386 159.705 224.492 159.917 224.588C160.129 224.68 160.359 224.772 160.607 224.864C160.943 224.988 161.267 225.128 161.579 225.284C161.895 225.44 162.155 225.646 162.359 225.902C162.563 226.154 162.665 226.486 162.665 226.898C162.665 227.438 162.461 227.864 162.053 228.176C161.645 228.488 161.097 228.644 160.409 228.644ZM167.581 228.644C167.101 228.644 166.689 228.554 166.345 228.374C166.001 228.19 165.737 227.898 165.553 227.498C165.369 227.094 165.277 226.56 165.277 225.896V222.368H166.399V225.914C166.399 226.53 166.529 226.964 166.789 227.216C167.053 227.468 167.377 227.594 167.761 227.594C168.029 227.594 168.273 227.544 168.493 227.444C168.717 227.344 168.895 227.174 169.027 226.934C169.159 226.69 169.225 226.358 169.225 225.938V222.368H170.347V228.5H169.225V227.9C169.033 228.148 168.799 228.334 168.523 228.458C168.247 228.582 167.933 228.644 167.581 228.644ZM172.126 228.5V227.516H173.41V223.352H172.126V222.368H174.466V223.736L174.394 223.562C174.506 223.294 174.682 223.06 174.922 222.86C175.166 222.656 175.448 222.5 175.768 222.392C176.088 222.28 176.418 222.224 176.758 222.224C177.07 222.224 177.338 222.254 177.562 222.314C177.79 222.37 177.972 222.44 178.108 222.524V224.684H177.01V222.854L177.406 223.364C177.298 223.336 177.19 223.318 177.082 223.31C176.974 223.298 176.866 223.292 176.758 223.292C176.322 223.292 175.936 223.362 175.6 223.502C175.268 223.638 175.008 223.838 174.82 224.102C174.632 224.366 174.538 224.686 174.538 225.062V227.516H176.314V228.5H172.126ZM181.752 228.5V223.352H180.456V222.368H181.752V221.486C181.752 221.182 181.806 220.932 181.914 220.736C182.022 220.536 182.166 220.38 182.346 220.268C182.526 220.152 182.726 220.072 182.946 220.028C183.17 219.98 183.394 219.956 183.618 219.956C183.918 219.956 184.176 219.982 184.392 220.034C184.608 220.086 184.808 220.158 184.992 220.25V221.198C184.804 221.11 184.616 221.048 184.428 221.012C184.24 220.976 184.034 220.958 183.81 220.958C183.578 220.958 183.392 220.988 183.252 221.048C183.116 221.108 183.016 221.192 182.952 221.3C182.892 221.408 182.862 221.536 182.862 221.684V222.368H184.71V223.352H182.862V228.5H181.752ZM180.456 228.5V227.516H184.494V228.5H180.456ZM189.573 228.644C189.145 228.644 188.765 228.568 188.433 228.416C188.101 228.26 187.839 228.03 187.647 227.726C187.455 227.422 187.359 227.042 187.359 226.586C187.359 226.114 187.473 225.73 187.701 225.434C187.933 225.134 188.229 224.914 188.589 224.774C188.953 224.63 189.335 224.558 189.735 224.558C190.039 224.558 190.321 224.588 190.581 224.648C190.845 224.704 191.105 224.8 191.361 224.936V224.498C191.361 224.154 191.305 223.888 191.193 223.7C191.081 223.512 190.927 223.382 190.731 223.31C190.539 223.234 190.323 223.196 190.083 223.196C189.751 223.196 189.411 223.26 189.063 223.388C188.715 223.512 188.407 223.662 188.139 223.838L187.809 222.914C188.089 222.742 188.437 222.584 188.853 222.44C189.273 222.296 189.717 222.224 190.185 222.224C190.433 222.224 190.687 222.252 190.947 222.308C191.207 222.364 191.449 222.47 191.673 222.626C191.897 222.782 192.077 223.006 192.213 223.298C192.353 223.59 192.423 223.97 192.423 224.438V228.5H191.361V227.96C191.157 228.148 190.907 228.31 190.611 228.446C190.315 228.578 189.969 228.644 189.573 228.644ZM189.741 227.672C190.113 227.672 190.433 227.59 190.701 227.426C190.973 227.262 191.193 227.084 191.361 226.892V225.902C191.181 225.794 190.959 225.702 190.695 225.626C190.431 225.55 190.161 225.512 189.885 225.512C189.493 225.512 189.149 225.598 188.853 225.77C188.561 225.942 188.415 226.214 188.415 226.586C188.415 226.906 188.531 227.168 188.763 227.372C188.995 227.572 189.321 227.672 189.741 227.672ZM197.525 228.644C196.713 228.644 196.067 228.364 195.587 227.804C195.111 227.24 194.873 226.452 194.873 225.44C194.873 224.768 194.983 224.192 195.203 223.712C195.423 223.232 195.735 222.864 196.139 222.608C196.547 222.352 197.029 222.224 197.585 222.224C198.141 222.224 198.615 222.346 199.007 222.59C199.399 222.834 199.685 223.204 199.865 223.7L198.827 224.072C198.735 223.836 198.587 223.642 198.383 223.49C198.183 223.334 197.913 223.256 197.573 223.256C197.041 223.256 196.647 223.454 196.391 223.85C196.139 224.242 196.013 224.772 196.013 225.44C196.013 226.116 196.141 226.646 196.397 227.03C196.657 227.414 197.041 227.606 197.549 227.606C197.889 227.606 198.173 227.526 198.401 227.366C198.629 227.202 198.793 226.976 198.893 226.688L199.925 227.036C199.761 227.548 199.473 227.944 199.061 228.224C198.649 228.504 198.137 228.644 197.525 228.644ZM204.914 228.644C204.322 228.644 203.814 228.504 203.39 228.224C202.966 227.94 202.64 227.556 202.412 227.072C202.188 226.588 202.076 226.04 202.076 225.428C202.076 224.756 202.192 224.182 202.424 223.706C202.66 223.226 202.99 222.86 203.414 222.608C203.842 222.352 204.342 222.224 204.914 222.224C205.386 222.224 205.818 222.328 206.21 222.536C206.602 222.744 206.914 223.064 207.146 223.496C207.382 223.928 207.5 224.482 207.5 225.158C207.5 225.242 207.498 225.346 207.494 225.47C207.494 225.594 207.484 225.728 207.464 225.872H202.94V224.906H206.396C206.384 224.474 206.3 224.134 206.144 223.886C205.992 223.638 205.804 223.464 205.58 223.364C205.356 223.26 205.134 223.208 204.914 223.208C204.314 223.208 203.874 223.398 203.594 223.778C203.314 224.158 203.174 224.67 203.174 225.314C203.174 226.026 203.33 226.592 203.642 227.012C203.954 227.432 204.386 227.642 204.938 227.642C205.194 227.642 205.438 227.6 205.67 227.516C205.906 227.428 206.132 227.29 206.348 227.102L206.99 227.822C206.738 228.058 206.434 228.254 206.078 228.41C205.726 228.566 205.338 228.644 204.914 228.644ZM219.709 228.644C218.897 228.644 218.251 228.364 217.771 227.804C217.295 227.24 217.057 226.452 217.057 225.44C217.057 224.768 217.167 224.192 217.387 223.712C217.607 223.232 217.919 222.864 218.323 222.608C218.731 222.352 219.213 222.224 219.769 222.224C220.325 222.224 220.799 222.346 221.191 222.59C221.583 222.834 221.869 223.204 222.049 223.7L221.011 224.072C220.919 223.836 220.771 223.642 220.567 223.49C220.367 223.334 220.097 223.256 219.757 223.256C219.225 223.256 218.831 223.454 218.575 223.85C218.323 224.242 218.197 224.772 218.197 225.44C218.197 226.116 218.325 226.646 218.581 227.03C218.841 227.414 219.225 227.606 219.733 227.606C220.073 227.606 220.357 227.526 220.585 227.366C220.813 227.202 220.977 226.976 221.077 226.688L222.109 227.036C221.945 227.548 221.657 227.944 221.245 228.224C220.833 228.504 220.321 228.644 219.709 228.644ZM226.971 228.644C226.387 228.644 225.879 228.516 225.447 228.26C225.015 228.004 224.679 227.638 224.439 227.162C224.203 226.682 224.085 226.108 224.085 225.44C224.085 224.776 224.203 224.204 224.439 223.724C224.679 223.244 225.015 222.874 225.447 222.614C225.879 222.354 226.387 222.224 226.971 222.224C227.559 222.224 228.069 222.352 228.501 222.608C228.933 222.864 229.267 223.232 229.503 223.712C229.739 224.192 229.857 224.766 229.857 225.434C229.857 226.098 229.739 226.67 229.503 227.15C229.267 227.63 228.933 228 228.501 228.26C228.069 228.516 227.559 228.644 226.971 228.644ZM226.971 227.606C227.535 227.606 227.967 227.412 228.267 227.024C228.571 226.632 228.723 226.102 228.723 225.434C228.723 224.766 228.575 224.236 228.279 223.844C227.987 223.452 227.551 223.256 226.971 223.256C226.403 223.256 225.969 223.448 225.669 223.832C225.369 224.216 225.219 224.752 225.219 225.44C225.219 226.104 225.369 226.632 225.669 227.024C225.969 227.412 226.403 227.606 226.971 227.606ZM233.886 228.5L231.528 222.368H232.698L234.192 226.418C234.228 226.51 234.262 226.608 234.294 226.712C234.326 226.812 234.358 226.926 234.39 227.054C234.422 226.926 234.454 226.812 234.486 226.712C234.522 226.608 234.556 226.51 234.588 226.418L236.058 222.368H237.21L234.852 228.5H233.886ZM241.886 228.644C241.294 228.644 240.786 228.504 240.362 228.224C239.938 227.94 239.612 227.556 239.384 227.072C239.16 226.588 239.048 226.04 239.048 225.428C239.048 224.756 239.164 224.182 239.396 223.706C239.632 223.226 239.962 222.86 240.386 222.608C240.814 222.352 241.314 222.224 241.886 222.224C242.358 222.224 242.79 222.328 243.182 222.536C243.574 222.744 243.886 223.064 244.118 223.496C244.354 223.928 244.472 224.482 244.472 225.158C244.472 225.242 244.47 225.346 244.466 225.47C244.466 225.594 244.456 225.728 244.436 225.872H239.912V224.906H243.368C243.356 224.474 243.272 224.134 243.116 223.886C242.964 223.638 242.776 223.464 242.552 223.364C242.328 223.26 242.106 223.208 241.886 223.208C241.286 223.208 240.846 223.398 240.566 223.778C240.286 224.158 240.146 224.67 240.146 225.314C240.146 226.026 240.302 226.592 240.614 227.012C240.926 227.432 241.358 227.642 241.91 227.642C242.166 227.642 242.41 227.6 242.642 227.516C242.878 227.428 243.104 227.29 243.32 227.102L243.962 227.822C243.71 228.058 243.406 228.254 243.05 228.41C242.698 228.566 242.31 228.644 241.886 228.644ZM246.071 228.5V227.516H247.355V223.352H246.071V222.368H248.411V223.736L248.339 223.562C248.451 223.294 248.627 223.06 248.867 222.86C249.111 222.656 249.393 222.5 249.713 222.392C250.033 222.28 250.363 222.224 250.703 222.224C251.015 222.224 251.283 222.254 251.507 222.314C251.735 222.37 251.917 222.44 252.053 222.524V224.684H250.955V222.854L251.351 223.364C251.243 223.336 251.135 223.318 251.027 223.31C250.919 223.298 250.811 223.292 250.703 223.292C250.267 223.292 249.881 223.362 249.545 223.502C249.213 223.638 248.953 223.838 248.765 224.102C248.577 224.366 248.483 224.686 248.483 225.062V227.516H250.259V228.5H246.071ZM256.676 228.644C256.084 228.644 255.576 228.504 255.152 228.224C254.728 227.94 254.402 227.556 254.174 227.072C253.95 226.588 253.838 226.04 253.838 225.428C253.838 224.756 253.954 224.182 254.186 223.706C254.422 223.226 254.752 222.86 255.176 222.608C255.604 222.352 256.104 222.224 256.676 222.224C257.148 222.224 257.58 222.328 257.972 222.536C258.364 222.744 258.676 223.064 258.908 223.496C259.144 223.928 259.262 224.482 259.262 225.158C259.262 225.242 259.26 225.346 259.256 225.47C259.256 225.594 259.246 225.728 259.226 225.872H254.702V224.906H258.158C258.146 224.474 258.062 224.134 257.906 223.886C257.754 223.638 257.566 223.464 257.342 223.364C257.118 223.26 256.896 223.208 256.676 223.208C256.076 223.208 255.636 223.398 255.356 223.778C255.076 224.158 254.936 224.67 254.936 225.314C254.936 226.026 255.092 226.592 255.404 227.012C255.716 227.432 256.148 227.642 256.7 227.642C256.956 227.642 257.2 227.6 257.432 227.516C257.668 227.428 257.894 227.29 258.11 227.102L258.752 227.822C258.5 228.058 258.196 228.254 257.84 228.41C257.488 228.566 257.1 228.644 256.676 228.644ZM263.746 228.644C263.198 228.644 262.724 228.516 262.324 228.26C261.928 228 261.622 227.63 261.406 227.15C261.194 226.666 261.088 226.092 261.088 225.428C261.088 224.76 261.198 224.188 261.418 223.712C261.638 223.232 261.946 222.864 262.342 222.608C262.738 222.352 263.2 222.224 263.728 222.224C264.112 222.224 264.436 222.282 264.7 222.398C264.968 222.51 265.184 222.646 265.348 222.806V220.364L266.458 219.836V228.5H265.348V228.002C265.2 228.166 264.994 228.314 264.73 228.446C264.466 228.578 264.138 228.644 263.746 228.644ZM263.89 227.606C264.226 227.606 264.516 227.538 264.76 227.402C265.004 227.266 265.2 227.074 265.348 226.826V224C265.24 223.832 265.068 223.666 264.832 223.502C264.596 223.338 264.278 223.256 263.878 223.256C263.346 223.256 262.936 223.444 262.648 223.82C262.364 224.192 262.222 224.728 262.222 225.428C262.222 225.844 262.288 226.216 262.42 226.544C262.556 226.872 262.748 227.132 262.996 227.324C263.244 227.512 263.542 227.606 263.89 227.606ZM160.697 247.644C160.281 247.644 159.943 247.58 159.683 247.452C159.427 247.32 159.207 247.166 159.023 246.99V247.5H157.913V239.364L159.023 238.836V241.908C159.207 241.704 159.447 241.54 159.743 241.416C160.043 241.288 160.353 241.224 160.673 241.224C161.189 241.224 161.643 241.352 162.035 241.608C162.427 241.864 162.731 242.232 162.947 242.712C163.167 243.188 163.277 243.76 163.277 244.428C163.277 245.464 163.047 246.26 162.587 246.816C162.127 247.368 161.497 247.644 160.697 247.644ZM160.523 246.606C161.071 246.606 161.477 246.41 161.741 246.018C162.009 245.626 162.143 245.096 162.143 244.428C162.143 243.728 162.007 243.192 161.735 242.82C161.467 242.444 161.063 242.256 160.523 242.256C160.275 242.256 160.051 242.298 159.851 242.382C159.651 242.462 159.481 242.562 159.341 242.682C159.201 242.802 159.095 242.918 159.023 243.03V245.826C159.179 246.066 159.387 246.256 159.647 246.396C159.907 246.536 160.199 246.606 160.523 246.606ZM166.333 249.828L167.257 247.35L164.989 241.368H166.117L167.593 245.418C167.625 245.506 167.657 245.602 167.689 245.706C167.725 245.806 167.757 245.91 167.785 246.018C167.821 245.91 167.855 245.806 167.887 245.706C167.923 245.606 167.957 245.51 167.989 245.418L169.477 241.368H170.635L167.461 249.828H166.333ZM182.604 247.644C182.02 247.644 181.512 247.516 181.08 247.26C180.648 247.004 180.312 246.638 180.072 246.162C179.836 245.682 179.718 245.108 179.718 244.44C179.718 243.776 179.836 243.204 180.072 242.724C180.312 242.244 180.648 241.874 181.08 241.614C181.512 241.354 182.02 241.224 182.604 241.224C183.192 241.224 183.702 241.352 184.134 241.608C184.566 241.864 184.9 242.232 185.136 242.712C185.372 243.192 185.49 243.766 185.49 244.434C185.49 245.098 185.372 245.67 185.136 246.15C184.9 246.63 184.566 247 184.134 247.26C183.702 247.516 183.192 247.644 182.604 247.644ZM182.604 246.606C183.168 246.606 183.6 246.412 183.9 246.024C184.204 245.632 184.356 245.102 184.356 244.434C184.356 243.766 184.208 243.236 183.912 242.844C183.62 242.452 183.184 242.256 182.604 242.256C182.036 242.256 181.602 242.448 181.302 242.832C181.002 243.216 180.852 243.752 180.852 244.44C180.852 245.104 181.002 245.632 181.302 246.024C181.602 246.412 182.036 246.606 182.604 246.606ZM190.131 247.644C189.319 247.644 188.673 247.364 188.193 246.804C187.717 246.24 187.479 245.452 187.479 244.44C187.479 243.768 187.589 243.192 187.809 242.712C188.029 242.232 188.341 241.864 188.745 241.608C189.153 241.352 189.635 241.224 190.191 241.224C190.747 241.224 191.221 241.346 191.613 241.59C192.005 241.834 192.291 242.204 192.471 242.7L191.433 243.072C191.341 242.836 191.193 242.642 190.989 242.49C190.789 242.334 190.519 242.256 190.179 242.256C189.647 242.256 189.253 242.454 188.997 242.85C188.745 243.242 188.619 243.772 188.619 244.44C188.619 245.116 188.747 245.646 189.003 246.03C189.263 246.414 189.647 246.606 190.155 246.606C190.495 246.606 190.779 246.526 191.007 246.366C191.235 246.202 191.399 245.976 191.499 245.688L192.531 246.036C192.367 246.548 192.079 246.944 191.667 247.224C191.255 247.504 190.743 247.644 190.131 247.644ZM197.519 247.644C196.927 247.644 196.419 247.504 195.995 247.224C195.571 246.94 195.245 246.556 195.017 246.072C194.793 245.588 194.681 245.04 194.681 244.428C194.681 243.756 194.797 243.182 195.029 242.706C195.265 242.226 195.595 241.86 196.019 241.608C196.447 241.352 196.947 241.224 197.519 241.224C197.991 241.224 198.423 241.328 198.815 241.536C199.207 241.744 199.519 242.064 199.751 242.496C199.987 242.928 200.105 243.482 200.105 244.158C200.105 244.242 200.103 244.346 200.099 244.47C200.099 244.594 200.089 244.728 200.069 244.872H195.545V243.906H199.001C198.989 243.474 198.905 243.134 198.749 242.886C198.597 242.638 198.409 242.464 198.185 242.364C197.961 242.26 197.739 242.208 197.519 242.208C196.919 242.208 196.479 242.398 196.199 242.778C195.919 243.158 195.779 243.67 195.779 244.314C195.779 245.026 195.935 245.592 196.247 246.012C196.559 246.432 196.991 246.642 197.543 246.642C197.799 246.642 198.043 246.6 198.275 246.516C198.511 246.428 198.737 246.29 198.953 246.102L199.595 246.822C199.343 247.058 199.039 247.254 198.683 247.41C198.331 247.566 197.943 247.644 197.519 247.644ZM204.362 247.644C203.934 247.644 203.554 247.568 203.222 247.416C202.89 247.26 202.628 247.03 202.436 246.726C202.244 246.422 202.148 246.042 202.148 245.586C202.148 245.114 202.262 244.73 202.49 244.434C202.722 244.134 203.018 243.914 203.378 243.774C203.742 243.63 204.124 243.558 204.524 243.558C204.828 243.558 205.11 243.588 205.37 243.648C205.634 243.704 205.894 243.8 206.15 243.936V243.498C206.15 243.154 206.094 242.888 205.982 242.7C205.87 242.512 205.716 242.382 205.52 242.31C205.328 242.234 205.112 242.196 204.872 242.196C204.54 242.196 204.2 242.26 203.852 242.388C203.504 242.512 203.196 242.662 202.928 242.838L202.598 241.914C202.878 241.742 203.226 241.584 203.642 241.44C204.062 241.296 204.506 241.224 204.974 241.224C205.222 241.224 205.476 241.252 205.736 241.308C205.996 241.364 206.238 241.47 206.462 241.626C206.686 241.782 206.866 242.006 207.002 242.298C207.142 242.59 207.212 242.97 207.212 243.438V247.5H206.15V246.96C205.946 247.148 205.696 247.31 205.4 247.446C205.104 247.578 204.758 247.644 204.362 247.644ZM204.53 246.672C204.902 246.672 205.222 246.59 205.49 246.426C205.762 246.262 205.982 246.084 206.15 245.892V244.902C205.97 244.794 205.748 244.702 205.484 244.626C205.22 244.55 204.95 244.512 204.674 244.512C204.282 244.512 203.938 244.598 203.642 244.77C203.35 244.942 203.204 245.214 203.204 245.586C203.204 245.906 203.32 246.168 203.552 246.372C203.784 246.572 204.11 246.672 204.53 246.672ZM209.65 247.5V241.368H210.76V242.616L210.598 242.34C210.662 242.132 210.78 241.944 210.952 241.776C211.128 241.608 211.344 241.474 211.6 241.374C211.86 241.274 212.146 241.224 212.458 241.224C212.922 241.224 213.324 241.314 213.664 241.494C214.004 241.67 214.266 241.958 214.45 242.358C214.634 242.754 214.726 243.278 214.726 243.93V247.5H213.616V243.9C213.616 243.292 213.482 242.866 213.214 242.622C212.946 242.378 212.618 242.256 212.23 242.256C211.954 242.256 211.704 242.306 211.48 242.406C211.26 242.502 211.084 242.668 210.952 242.904C210.824 243.14 210.76 243.464 210.76 243.876V247.5H209.65ZM219.565 247.644C219.089 247.644 218.645 247.542 218.233 247.338C217.825 247.134 217.489 246.876 217.225 246.564L217.975 245.892C218.155 246.084 218.387 246.262 218.671 246.426C218.959 246.59 219.281 246.672 219.637 246.672C219.953 246.672 220.217 246.612 220.429 246.492C220.645 246.368 220.753 246.18 220.753 245.928C220.753 245.736 220.685 245.574 220.549 245.442C220.417 245.31 220.235 245.192 220.003 245.088C219.775 244.984 219.517 244.878 219.229 244.77C218.869 244.63 218.543 244.48 218.251 244.32C217.959 244.16 217.727 243.962 217.555 243.726C217.383 243.49 217.297 243.196 217.297 242.844C217.297 242.508 217.393 242.22 217.585 241.98C217.781 241.736 218.045 241.55 218.377 241.422C218.713 241.29 219.089 241.224 219.505 241.224C219.985 241.224 220.407 241.312 220.771 241.488C221.135 241.664 221.439 241.894 221.683 242.178L220.939 242.796C220.783 242.648 220.581 242.512 220.333 242.388C220.089 242.26 219.791 242.196 219.439 242.196C219.119 242.196 218.859 242.252 218.659 242.364C218.463 242.476 218.365 242.638 218.365 242.85C218.365 243.014 218.429 243.154 218.557 243.27C218.689 243.386 218.861 243.492 219.073 243.588C219.285 243.68 219.515 243.772 219.763 243.864C220.099 243.988 220.423 244.128 220.735 244.284C221.051 244.44 221.311 244.646 221.515 244.902C221.719 245.154 221.821 245.486 221.821 245.898C221.821 246.438 221.617 246.864 221.209 247.176C220.801 247.488 220.253 247.644 219.565 247.644Z" fill="black"/>
</svg>
