<svg width="62" height="14" viewBox="0 0 62 14" fill="none" xmlns="http://www.w3.org/2000/svg">
<rect width="2.82203" height="13.7637" transform="matrix(-0.707107 -0.707107 -0.707107 0.707107 30.9297 4.06201)" fill="white"/>
<rect width="2.82203" height="16.54" transform="matrix(-0.707107 0.707107 0.707107 0.707107 30.9033 0.0986328)" fill="white"/>
<rect width="2.82203" height="9.05402" transform="matrix(-0.707107 -0.707107 -0.707107 0.707107 50.332 4.0625)" fill="white"/>
<rect width="2.82203" height="16.539" transform="matrix(-0.707107 0.707107 0.707107 0.707107 50.3057 0.0996094)" fill="white"/>
<rect x="11.667" y="4.0625" width="2.82203" height="9.05402" transform="rotate(-45 11.667 4.0625)" fill="white"/>
<rect x="11.6934" y="0.0996094" width="2.82203" height="16.539" transform="rotate(45 11.6934 0.0996094)" fill="white"/>
<rect x="29.1289" y="11.9038" width="2.96267" height="2.96496" transform="rotate(-45 29.1289 11.9038)" fill="white"/>
<rect x="9.70898" y="11.9038" width="2.96267" height="2.96496" transform="rotate(-45 9.70898 11.9038)" fill="white"/>
<rect x="48.5479" y="11.9038" width="2.96267" height="2.96496" transform="rotate(-45 48.5479 11.9038)" fill="white"/>
</svg>
