<svg width="62" height="26" viewBox="0 0 62 26" fill="none" xmlns="http://www.w3.org/2000/svg">
<rect width="2.81382" height="16.4787" transform="matrix(-0.707107 0.707107 0.707107 0.707107 1.99023 0.916504)" fill="white"/>
<rect width="2.81382" height="9.02766" transform="matrix(-0.707107 -0.707107 -0.707107 0.707107 21.3516 4.85889)" fill="white"/>
<rect width="2.81382" height="16.4918" transform="matrix(-0.707107 0.707107 0.707107 0.707107 21.3252 0.907227)" fill="white"/>
<rect width="2.81382" height="9.02766" transform="matrix(-0.707107 -0.707107 -0.707107 0.707107 40.6973 4.85889)" fill="white"/>
<rect width="2.81382" height="16.4909" transform="matrix(-0.707107 0.707107 0.707107 0.707107 40.6699 0.907715)" fill="white"/>
<rect width="2.81382" height="11.7966" transform="matrix(-0.707107 -0.707107 -0.707107 0.707107 62 2.90088)" fill="white"/>
<rect width="2.81382" height="16.4787" transform="matrix(-0.707107 0.707107 0.707107 0.707107 1.99023 12.3584)" fill="white"/>
<rect width="2.81382" height="9.02766" transform="matrix(-0.707107 -0.707107 -0.707107 0.707107 21.3516 16.3008)" fill="white"/>
<rect width="2.81382" height="16.4918" transform="matrix(-0.707107 0.707107 0.707107 0.707107 21.3252 12.3491)" fill="white"/>
<rect width="2.81382" height="9.02766" transform="matrix(-0.707107 -0.707107 -0.707107 0.707107 40.6973 16.3008)" fill="white"/>
<rect width="2.81382" height="16.4909" transform="matrix(-0.707107 0.707107 0.707107 0.707107 40.6699 12.3496)" fill="white"/>
<rect width="2.81382" height="11.7966" transform="matrix(-0.707107 -0.707107 -0.707107 0.707107 62 14.3428)" fill="white"/>
</svg>
