<svg width="673" height="149" viewBox="0 0 673 149" fill="none" xmlns="http://www.w3.org/2000/svg">
<path d="M51.4648 146.701C42.6537 146.701 34.5768 145.367 27.2343 142.699C20.0252 140.031 14.0176 136.163 9.21159 131.094C4.53904 125.892 1.46851 119.555 0 112.085L30.4383 104.682C31.2393 106.283 32.2406 108.217 33.4421 110.485C34.7771 112.752 36.7129 114.753 39.2494 116.487C41.7859 118.088 45.1902 118.888 49.4622 118.888C55.0693 118.888 59.4748 117.421 62.6789 114.487C65.8829 111.418 67.4849 107.417 67.4849 102.481C67.4849 99.5465 66.7506 96.812 65.2821 94.2775C63.9471 91.6097 61.4106 89.5421 57.6726 88.0748C54.068 86.4741 48.9282 85.6737 42.2532 85.6737H31.8401V64.8644H41.0516C48.9282 64.8644 56.3375 65.8649 63.2796 67.8658C70.3552 69.7333 76.6297 72.5345 82.1033 76.2695C87.5769 80.0045 91.8489 84.4065 94.9194 89.4754C98.1234 94.5443 99.7255 100.28 99.7255 106.683C99.7255 115.22 97.4559 122.49 92.9169 128.493C88.3779 134.495 82.437 139.031 75.0945 142.099C67.7519 145.167 59.8753 146.701 51.4648 146.701ZM31.8401 79.0708V59.6621H42.2532C50.6637 59.6621 56.6045 58.2615 60.0756 55.4603C63.5466 52.659 65.2821 48.8573 65.2821 44.0552C65.2821 41.2539 64.6146 38.7862 63.2796 36.6519C61.9446 34.5176 60.0756 32.8502 57.6726 31.6497C55.2695 30.3158 52.5328 29.6488 49.4622 29.6488C47.1927 29.6488 44.8564 30.049 42.4534 30.8493C40.0504 31.6497 37.8476 33.0503 35.8451 35.0512C33.8426 37.0521 32.3073 39.92 31.2393 43.655L1.20151 36.4518C2.67003 28.8484 5.87406 22.5123 10.8136 17.4434C15.8867 12.241 21.8942 8.37266 28.8363 5.8382C35.7783 3.17035 42.9207 1.83643 50.2632 1.83643C59.0743 1.83643 67.0176 3.50383 74.0932 6.83864C81.3023 10.0401 86.9761 14.5754 91.1146 20.4447C95.3867 26.1806 97.5227 32.9169 97.5227 40.6537C97.5227 47.3233 95.8539 53.0592 92.5164 57.8613C89.3124 62.6635 84.9736 66.6653 79.5 69.8667C74.16 72.9347 68.1524 75.2691 61.4773 76.8698C54.8023 78.3371 47.9937 79.0708 41.0516 79.0708H31.8401Z" fill="white"/>
<path d="M171.525 146.701C160.044 146.701 149.831 143.633 140.887 137.497C131.942 131.227 124.933 122.69 119.86 111.885C114.921 100.947 112.451 88.4082 112.451 74.2686C112.451 60.129 114.921 47.6568 119.86 36.852C124.933 25.9138 131.875 17.3767 140.686 11.2406C149.631 4.97115 159.844 1.83643 171.325 1.83643C182.94 1.83643 193.219 4.97115 202.164 11.2406C211.108 17.3767 218.117 25.9138 223.19 36.852C228.397 47.6568 231 60.129 231 74.2686C231 88.4082 228.463 100.947 223.39 111.885C218.317 122.69 211.309 131.227 202.364 137.497C193.419 143.633 183.14 146.701 171.525 146.701ZM171.725 117.488C177.065 117.488 181.805 115.62 185.943 111.885C190.215 108.15 193.553 103.081 195.956 96.6786C198.359 90.1424 199.56 82.6724 199.56 74.2686C199.56 65.7315 198.359 58.1948 195.956 51.6586C193.553 45.1223 190.215 39.9867 185.943 36.2517C181.671 32.5167 176.798 30.6492 171.325 30.6492C165.985 30.6492 161.246 32.5167 157.107 36.2517C152.968 39.9867 149.698 45.1223 147.295 51.6586C145.025 58.1948 143.89 65.7315 143.89 74.2686C143.89 82.6724 145.025 90.1424 147.295 96.6786C149.698 103.215 152.968 108.35 157.107 112.085C161.379 115.687 166.252 117.488 171.725 117.488Z" fill="white"/>
<rect width="21.545" height="105.032" transform="matrix(-0.707107 0.707107 0.707107 0.707107 277.234 0)" fill="#4879FF"/>
<rect width="21.545" height="69.1235" transform="matrix(-0.707107 0.707107 0.707107 0.707107 361.659 84.4253)" fill="#AD6CFF"/>
<rect width="21.545" height="69.1235" transform="matrix(-0.707107 -0.707107 -0.707107 0.707107 410.537 15.2349)" fill="#FD8E28"/>
<rect width="21.545" height="69.1235" transform="matrix(-0.707107 -0.707107 -0.707107 0.707107 326.112 99.6597)" fill="#02B07C"/>
<path d="M493.002 146.701C484.191 146.701 476.114 145.367 468.771 142.699C461.562 140.031 455.555 136.163 450.749 131.094C446.076 125.892 443.006 119.555 441.537 112.085L471.975 104.682C472.776 106.283 473.778 108.217 474.979 110.485C476.314 112.752 478.25 114.753 480.786 116.487C483.323 118.088 486.727 118.888 490.999 118.888C496.606 118.888 501.012 117.421 504.216 114.487C507.42 111.418 509.022 107.417 509.022 102.481C509.022 99.5465 508.288 96.812 506.819 94.2775C505.484 91.6097 502.948 89.5421 499.21 88.0748C495.605 86.4741 490.465 85.6737 483.79 85.6737H473.377V64.8644H482.589C490.465 64.8644 497.875 65.8649 504.817 67.8658C511.892 69.7333 518.167 72.5345 523.64 76.2695C529.114 80.0045 533.386 84.4065 536.457 89.4754C539.661 94.5443 541.263 100.28 541.263 106.683C541.263 115.22 538.993 122.49 534.454 128.493C529.915 134.495 523.974 139.031 516.632 142.099C509.289 145.167 501.412 146.701 493.002 146.701ZM473.377 79.0708V59.6621H483.79C492.201 59.6621 498.142 58.2615 501.613 55.4603C505.084 52.659 506.819 48.8573 506.819 44.0552C506.819 41.2539 506.152 38.7862 504.817 36.6519C503.482 34.5176 501.613 32.8502 499.21 31.6497C496.807 30.3158 494.07 29.6488 490.999 29.6488C488.73 29.6488 486.394 30.049 483.991 30.8493C481.587 31.6497 479.385 33.0503 477.382 35.0512C475.38 37.0521 473.844 39.92 472.776 43.655L442.739 36.4518C444.207 28.8484 447.411 22.5123 452.351 17.4434C457.424 12.241 463.431 8.37266 470.373 5.8382C477.315 3.17035 484.458 1.83643 491.8 1.83643C500.611 1.83643 508.555 3.50383 515.63 6.83864C522.839 10.0401 528.513 14.5754 532.652 20.4447C536.924 26.1806 539.06 32.9169 539.06 40.6537C539.06 47.3233 537.391 53.0592 534.054 57.8613C530.849 62.6635 526.511 66.6653 521.037 69.8667C515.697 72.9347 509.69 75.2691 503.014 76.8698C496.339 78.3371 489.531 79.0708 482.589 79.0708H473.377Z" fill="white"/>
<path d="M613.062 146.701C601.581 146.701 591.368 143.633 582.424 137.497C573.479 131.227 566.47 122.69 561.397 111.885C556.458 100.947 553.988 88.4082 553.988 74.2686C553.988 60.129 556.458 47.6568 561.397 36.852C566.47 25.9138 573.412 17.3767 582.223 11.2406C591.168 4.97115 601.381 1.83643 612.862 1.83643C624.477 1.83643 634.756 4.97115 643.701 11.2406C652.645 17.3767 659.654 25.9138 664.727 36.852C669.934 47.6568 672.537 60.129 672.537 74.2686C672.537 88.4082 670.001 100.947 664.928 111.885C659.854 122.69 652.846 131.227 643.901 137.497C634.956 143.633 624.677 146.701 613.062 146.701ZM613.263 117.488C618.603 117.488 623.342 115.62 627.48 111.885C631.752 108.15 635.09 103.081 637.493 96.6786C639.896 90.1424 641.098 82.6724 641.098 74.2686C641.098 65.7315 639.896 58.1948 637.493 51.6586C635.09 45.1223 631.752 39.9867 627.48 36.2517C623.208 32.5167 618.336 30.6492 612.862 30.6492C607.522 30.6492 602.783 32.5167 598.644 36.2517C594.506 39.9867 591.235 45.1223 588.832 51.6586C586.562 58.1948 585.428 65.7315 585.428 74.2686C585.428 82.6724 586.562 90.1424 588.832 96.6786C591.235 103.215 594.506 108.35 598.644 112.085C602.916 115.687 607.789 117.488 613.263 117.488Z" fill="white"/>
</svg>
