<svg width="24" height="24" viewBox="0 0 24 24" fill="none" xmlns="http://www.w3.org/2000/svg">
<g clip-path="url(#clip0_448_1283)">
<mask id="mask0_448_1283" style="mask-type:alpha" maskUnits="userSpaceOnUse" x="-8" y="-7" width="39" height="38">
<rect width="0.899294" height="4.38406" transform="matrix(-0.707107 0.707107 0.707107 0.707107 -0.163971 -0.799988)" fill="#00BF36"/>
<rect width="0.899294" height="2.88524" transform="matrix(-0.707107 -0.707107 -0.707107 0.707107 5.4003 -0.164093)" fill="#00BF36"/>
<rect width="0.899294" height="4.38406" transform="matrix(-0.707107 0.707107 0.707107 0.707107 6.03629 -0.799988)" fill="#00BF36"/>
<rect width="0.899294" height="2.88524" transform="matrix(-0.707107 -0.707107 -0.707107 0.707107 11.6006 -0.164093)" fill="#00BF36"/>
<rect width="0.899294" height="4.38406" transform="matrix(-0.707107 0.707107 0.707107 0.707107 12.2366 -0.799988)" fill="#00BF36"/>
<rect width="0.899294" height="2.88524" transform="matrix(-0.707107 -0.707107 -0.707107 0.707107 17.8008 -0.164093)" fill="#00BF36"/>
<rect width="0.899294" height="4.38406" transform="matrix(-0.707107 0.707107 0.707107 0.707107 18.4368 -0.799988)" fill="#00BF36"/>
<rect width="0.899294" height="2.88524" transform="matrix(-0.707107 -0.707107 -0.707107 0.707107 24.0011 -0.164093)" fill="#00BF36"/>
<rect width="0.899294" height="4.38406" transform="matrix(-0.707107 0.707107 0.707107 0.707107 -0.163971 5.39999)" fill="#00BF36"/>
<rect width="0.899294" height="2.88524" transform="matrix(-0.707107 -0.707107 -0.707107 0.707107 5.4003 6.03589)" fill="#00BF36"/>
<rect width="0.899294" height="4.38406" transform="matrix(-0.707107 0.707107 0.707107 0.707107 6.03629 5.39999)" fill="#00BF36"/>
<rect width="0.899294" height="2.88524" transform="matrix(-0.707107 -0.707107 -0.707107 0.707107 11.6006 6.03589)" fill="#00BF36"/>
<rect width="0.899294" height="4.38406" transform="matrix(-0.707107 0.707107 0.707107 0.707107 12.2366 5.39999)" fill="#00BF36"/>
<rect width="0.899294" height="2.88524" transform="matrix(-0.707107 -0.707107 -0.707107 0.707107 17.8008 6.03589)" fill="#00BF36"/>
<rect width="0.899294" height="4.38406" transform="matrix(-0.707107 0.707107 0.707107 0.707107 18.4368 5.39999)" fill="#00BF36"/>
<rect width="0.899294" height="2.88524" transform="matrix(-0.707107 -0.707107 -0.707107 0.707107 24.0011 6.03589)" fill="#00BF36"/>
<rect width="0.899294" height="4.38406" transform="matrix(-0.707107 0.707107 0.707107 0.707107 -0.163971 11.6)" fill="#00BF36"/>
<rect width="0.899294" height="2.88524" transform="matrix(-0.707107 -0.707107 -0.707107 0.707107 5.4003 12.2359)" fill="#00BF36"/>
<rect width="0.899294" height="4.38406" transform="matrix(-0.707107 0.707107 0.707107 0.707107 6.03629 11.6)" fill="#00BF36"/>
<rect width="0.899294" height="2.88524" transform="matrix(-0.707107 -0.707107 -0.707107 0.707107 11.6006 12.2359)" fill="#00BF36"/>
<rect width="0.899294" height="4.38406" transform="matrix(-0.707107 0.707107 0.707107 0.707107 12.2366 11.6)" fill="#00BF36"/>
<rect width="0.899294" height="2.88524" transform="matrix(-0.707107 -0.707107 -0.707107 0.707107 17.8008 12.2359)" fill="#00BF36"/>
<rect width="0.899294" height="4.38406" transform="matrix(-0.707107 0.707107 0.707107 0.707107 18.4368 11.6)" fill="#00BF36"/>
<rect width="0.899294" height="2.88524" transform="matrix(-0.707107 -0.707107 -0.707107 0.707107 24.0011 12.2359)" fill="#00BF36"/>
<rect width="0.899294" height="4.38406" transform="matrix(-0.707107 0.707107 0.707107 0.707107 -0.163971 17.8)" fill="#00BF36"/>
<rect width="0.899294" height="2.88524" transform="matrix(-0.707107 -0.707107 -0.707107 0.707107 5.4003 18.4359)" fill="#00BF36"/>
<rect width="0.899294" height="4.38406" transform="matrix(-0.707107 0.707107 0.707107 0.707107 6.03629 17.8)" fill="#00BF36"/>
<rect width="0.899294" height="2.88524" transform="matrix(-0.707107 -0.707107 -0.707107 0.707107 11.6006 18.4359)" fill="#00BF36"/>
<rect width="0.899294" height="4.38406" transform="matrix(-0.707107 0.707107 0.707107 0.707107 12.2366 17.8)" fill="#00BF36"/>
<rect width="0.899294" height="2.88524" transform="matrix(-0.707107 -0.707107 -0.707107 0.707107 17.8008 18.4359)" fill="#00BF36"/>
<rect width="0.899294" height="4.38406" transform="matrix(-0.707107 0.707107 0.707107 0.707107 18.4368 17.8)" fill="#00BF36"/>
<rect width="0.899294" height="2.88524" transform="matrix(-0.707107 -0.707107 -0.707107 0.707107 24.0011 18.4359)" fill="#00BF36"/>
</mask>
<g mask="url(#mask0_448_1283)">
<circle cx="12" cy="12" r="12" fill="black"/>
</g>
</g>
<defs>
<clipPath id="clip0_448_1283">
<rect width="24" height="24" fill="white"/>
</clipPath>
</defs>
</svg>
