<svg width="19" height="19" viewBox="0 0 19 19" fill="none" xmlns="http://www.w3.org/2000/svg">
<rect width="19" height="19" fill="#F5F5F5"/>
<g id="Knowledge Hub" clip-path="url(#clip0_610_17111)" filter="url(#filter0_b_610_17111)">
<rect width="1280" height="2900" transform="translate(-71 -1113)" fill="#FAFAFA"/>
<g id="Frame 231843">
<g id="Frame 231670">
<g id="Frame 231669">
<g id="Frame 231668" filter="url(#filter1_d_610_17111)">
<rect x="-21" y="-67" width="367" height="514" fill="white" shape-rendering="crispEdges"/>
<rect x="-20.5" y="-66.5" width="366" height="513" stroke="black" shape-rendering="crispEdges"/>
<g id="Frame 231664">
<g id="Frame 231625">
<g id="Frame 231207">
<path id="Vector" d="M9.29762 3.83333H3.125C2.56142 3.83333 2.02091 4.05722 1.6224 4.45573C1.22388 4.85425 1 5.39475 1 5.95833V15.875C1 16.4386 1.22388 16.9791 1.6224 17.3776C2.02091 17.7761 2.56142 18 3.125 18H13.0417C13.6053 18 14.1458 17.7761 14.5443 17.3776C14.9428 16.9791 15.1667 16.4386 15.1667 15.875V9.70238M5.25 13.75L18 1M18 1H13.0417M18 1V5.95833" stroke="black" stroke-width="1.61905" stroke-linecap="square"/>
</g>
</g>
</g>
</g>
</g>
</g>
</g>
</g>
<defs>
<filter id="filter0_b_610_17111" x="-75" y="-1117" width="1288" height="2908" filterUnits="userSpaceOnUse" color-interpolation-filters="sRGB">
<feFlood flood-opacity="0" result="BackgroundImageFix"/>
<feGaussianBlur in="BackgroundImageFix" stdDeviation="2"/>
<feComposite in2="SourceAlpha" operator="in" result="effect1_backgroundBlur_610_17111"/>
<feBlend mode="normal" in="SourceGraphic" in2="effect1_backgroundBlur_610_17111" result="shape"/>
</filter>
<filter id="filter1_d_610_17111" x="-21" y="-67" width="371" height="518" filterUnits="userSpaceOnUse" color-interpolation-filters="sRGB">
<feFlood flood-opacity="0" result="BackgroundImageFix"/>
<feColorMatrix in="SourceAlpha" type="matrix" values="0 0 0 0 0 0 0 0 0 0 0 0 0 0 0 0 0 0 127 0" result="hardAlpha"/>
<feOffset dx="4" dy="4"/>
<feComposite in2="hardAlpha" operator="out"/>
<feColorMatrix type="matrix" values="0 0 0 0 0 0 0 0 0 0 0 0 0 0 0 0 0 0 1 0"/>
<feBlend mode="normal" in2="BackgroundImageFix" result="effect1_dropShadow_610_17111"/>
<feBlend mode="normal" in="SourceGraphic" in2="effect1_dropShadow_610_17111" result="shape"/>
</filter>
<clipPath id="clip0_610_17111">
<rect width="1280" height="2900" fill="white" transform="translate(-71 -1113)"/>
</clipPath>
</defs>
</svg>
