<svg width="13" height="11" viewBox="0 0 13 11" fill="none" xmlns="http://www.w3.org/2000/svg">
<path id="Vector" d="M5.73597 11C5.54118 11 5.3779 10.9341 5.24613 10.8023C5.11436 10.6706 5.04847 10.5073 5.04847 10.3125V6.1875L0.940658 0.945312C0.780241 0.750521 0.757324 0.544271 0.871908 0.326562C0.986491 0.108854 1.1641 0 1.40472 0H11.4422C11.6828 0 11.8604 0.108854 11.975 0.326562C12.0896 0.544271 12.0667 0.750521 11.9063 0.945312L7.79847 6.1875V10.3125C7.79847 10.5073 7.73258 10.6706 7.60081 10.8023C7.46904 10.9341 7.30576 11 7.11097 11H5.73597Z" fill="#1E1E1E"/>
</svg>
