<svg width="16" height="15" viewBox="0 0 16 15" fill="none" xmlns="http://www.w3.org/2000/svg">
<path d="M8 14.25C9.49625 14.2499 10.9501 13.7529 12.1333 12.837C13.3164 11.9211 14.1619 10.6382 14.537 9.18975M8 14.25C6.50376 14.2499 5.04991 13.7529 3.86673 12.837C2.68356 11.9211 1.83806 10.6382 1.463 9.18975M8 14.25C9.86375 14.25 11.375 11.2275 11.375 7.5C11.375 3.7725 9.86375 0.750001 8 0.750001M8 14.25C6.13625 14.25 4.625 11.2275 4.625 7.5C4.625 3.7725 6.13625 0.750001 8 0.750001M14.537 9.18975C14.6758 8.64975 14.75 8.0835 14.75 7.5C14.7519 6.33908 14.4529 5.19749 13.8823 4.1865M14.537 9.18975C12.5369 10.2985 10.2869 10.8786 8 10.875C5.6285 10.875 3.40025 10.2638 1.463 9.18975M1.463 9.18975C1.32106 8.63773 1.2495 8.06998 1.25 7.5C1.25 6.29625 1.565 5.16525 2.11775 4.1865M8 0.750001C9.19718 0.749501 10.3729 1.06752 11.4066 1.67142C12.4403 2.27533 13.2948 3.14338 13.8823 4.1865M8 0.750001C6.80282 0.749501 5.62706 1.06752 4.59336 1.67142C3.55966 2.27533 2.70523 3.14338 2.11775 4.1865M13.8823 4.1865C12.2493 5.60095 10.1604 6.37811 8 6.375C5.7515 6.375 3.695 5.55 2.11775 4.1865" stroke="black" stroke-width="1.125" stroke-linecap="round" stroke-linejoin="round"/>
</svg>
