<svg width="24" height="24" viewBox="0 0 24 24" fill="none" xmlns="http://www.w3.org/2000/svg">
<mask id="mask0_256_26864" style="mask-type:alpha" maskUnits="userSpaceOnUse" x="-20" y="-17" width="63" height="56">
<rect width="0.899294" height="2.88524" transform="matrix(-0.707107 0.707107 0.707107 0.707107 16.16 -0.976074)" fill="#00BF36"/>
<rect width="0.899294" height="2.88524" transform="matrix(-0.707107 -0.707107 -0.707107 0.707107 14.6761 -0.340179)" fill="#00BF36"/>
<rect width="0.899294" height="2.88524" transform="matrix(-0.707107 0.707107 0.707107 0.707107 9.9599 -0.976074)" fill="#00BF36"/>
<rect width="0.899294" height="2.88524" transform="matrix(-0.707107 -0.707107 -0.707107 0.707107 8.47614 -0.340179)" fill="#00BF36"/>
<rect width="0.899294" height="2.88524" transform="matrix(-0.707107 0.707107 0.707107 0.707107 3.75983 -0.976074)" fill="#00BF36"/>
<rect width="0.899294" height="2.88524" transform="matrix(-0.707107 -0.707107 -0.707107 0.707107 2.27606 -0.340179)" fill="#00BF36"/>
<rect width="0.899294" height="4.38406" transform="matrix(-0.707107 0.707107 0.707107 0.707107 12.6357 1.70001)" fill="#00BF36"/>
<rect width="0.899294" height="2.88524" transform="matrix(-0.707107 0.707107 0.707107 0.707107 16.16 5.22394)" fill="#00BF36"/>
<rect width="0.899294" height="2.88524" transform="matrix(-0.707107 -0.707107 -0.707107 0.707107 18.2 2.33591)" fill="#00BF36"/>
<rect width="0.899294" height="2.88524" transform="matrix(-0.707107 -0.707107 -0.707107 0.707107 14.6761 5.85983)" fill="#00BF36"/>
<rect width="0.899294" height="4.38406" transform="matrix(-0.707107 0.707107 0.707107 0.707107 6.43567 1.70001)" fill="#00BF36"/>
<rect width="0.899294" height="2.88524" transform="matrix(-0.707107 0.707107 0.707107 0.707107 9.9599 5.22394)" fill="#00BF36"/>
<rect width="0.899294" height="2.88524" transform="matrix(-0.707107 -0.707107 -0.707107 0.707107 11.9999 2.33591)" fill="#00BF36"/>
<rect width="0.899294" height="2.88524" transform="matrix(-0.707107 -0.707107 -0.707107 0.707107 8.47614 5.85983)" fill="#00BF36"/>
<rect width="0.899294" height="4.38406" transform="matrix(-0.707107 0.707107 0.707107 0.707107 0.235657 1.70001)" fill="#00BF36"/>
<rect width="0.899294" height="2.88524" transform="matrix(-0.707107 0.707107 0.707107 0.707107 3.75983 5.22394)" fill="#00BF36"/>
<rect width="0.899294" height="2.88524" transform="matrix(-0.707107 -0.707107 -0.707107 0.707107 5.79987 2.33591)" fill="#00BF36"/>
<rect width="0.899294" height="2.88524" transform="matrix(-0.707107 -0.707107 -0.707107 0.707107 2.27606 5.85983)" fill="#00BF36"/>
<rect width="0.899294" height="4.38406" transform="matrix(-0.707107 0.707107 0.707107 0.707107 12.6357 7.89999)" fill="#00BF36"/>
<rect width="0.899294" height="2.88524" transform="matrix(-0.707107 0.707107 0.707107 0.707107 16.16 11.4239)" fill="#00BF36"/>
<rect width="0.899294" height="2.88524" transform="matrix(-0.707107 -0.707107 -0.707107 0.707107 18.2 8.53589)" fill="#00BF36"/>
<rect width="0.899294" height="2.88524" transform="matrix(-0.707107 -0.707107 -0.707107 0.707107 14.6761 12.0598)" fill="#00BF36"/>
<rect width="0.899294" height="4.38406" transform="matrix(-0.707107 0.707107 0.707107 0.707107 6.43567 7.89999)" fill="#00BF36"/>
<rect width="0.899294" height="2.88524" transform="matrix(-0.707107 0.707107 0.707107 0.707107 9.9599 11.4239)" fill="#00BF36"/>
<rect width="0.899294" height="2.88524" transform="matrix(-0.707107 -0.707107 -0.707107 0.707107 11.9999 8.53589)" fill="#00BF36"/>
<rect width="0.899294" height="2.88524" transform="matrix(-0.707107 -0.707107 -0.707107 0.707107 8.47614 12.0598)" fill="#00BF36"/>
<rect width="0.899294" height="4.38406" transform="matrix(-0.707107 0.707107 0.707107 0.707107 0.235657 7.89999)" fill="#00BF36"/>
<rect width="0.899294" height="2.88524" transform="matrix(-0.707107 0.707107 0.707107 0.707107 3.75983 11.4239)" fill="#00BF36"/>
<rect width="0.899294" height="2.88524" transform="matrix(-0.707107 -0.707107 -0.707107 0.707107 5.79987 8.53589)" fill="#00BF36"/>
<rect width="0.899294" height="2.88524" transform="matrix(-0.707107 -0.707107 -0.707107 0.707107 2.27606 12.0598)" fill="#00BF36"/>
<rect width="0.899294" height="4.38406" transform="matrix(-0.707107 0.707107 0.707107 0.707107 12.6357 14.1)" fill="#00BF36"/>
<rect width="0.899294" height="2.88524" transform="matrix(-0.707107 0.707107 0.707107 0.707107 16.16 17.6239)" fill="#00BF36"/>
<rect width="0.899294" height="2.88524" transform="matrix(-0.707107 -0.707107 -0.707107 0.707107 18.2 14.7359)" fill="#00BF36"/>
<rect width="0.899294" height="2.88524" transform="matrix(-0.707107 -0.707107 -0.707107 0.707107 14.6761 18.2598)" fill="#00BF36"/>
<rect width="0.899294" height="4.38406" transform="matrix(-0.707107 0.707107 0.707107 0.707107 6.43567 14.1)" fill="#00BF36"/>
<rect width="0.899294" height="2.88524" transform="matrix(-0.707107 0.707107 0.707107 0.707107 9.9599 17.6239)" fill="#00BF36"/>
<rect width="0.899294" height="2.88524" transform="matrix(-0.707107 -0.707107 -0.707107 0.707107 11.9999 14.7359)" fill="#00BF36"/>
<rect width="0.899294" height="2.88524" transform="matrix(-0.707107 -0.707107 -0.707107 0.707107 8.47614 18.2598)" fill="#00BF36"/>
<rect width="0.899294" height="4.38406" transform="matrix(-0.707107 0.707107 0.707107 0.707107 0.235657 14.1)" fill="#00BF36"/>
<rect width="0.899294" height="2.88524" transform="matrix(-0.707107 0.707107 0.707107 0.707107 3.75983 17.6239)" fill="#00BF36"/>
<rect width="0.899294" height="2.88524" transform="matrix(-0.707107 -0.707107 -0.707107 0.707107 5.79987 14.7359)" fill="#00BF36"/>
<rect width="0.899294" height="2.88524" transform="matrix(-0.707107 -0.707107 -0.707107 0.707107 2.27606 18.2598)" fill="#00BF36"/>
<rect width="0.899294" height="4.38406" transform="matrix(-0.707107 0.707107 0.707107 0.707107 12.6357 20.3)" fill="#00BF36"/>
<rect width="0.899294" height="2.88524" transform="matrix(-0.707107 0.707107 0.707107 0.707107 16.16 23.8239)" fill="#00BF36"/>
<rect width="0.899294" height="2.88524" transform="matrix(-0.707107 -0.707107 -0.707107 0.707107 18.2 20.9359)" fill="#00BF36"/>
<rect width="0.899294" height="2.88524" transform="matrix(-0.707107 -0.707107 -0.707107 0.707107 14.6761 24.4598)" fill="#00BF36"/>
<rect width="0.899294" height="4.38406" transform="matrix(-0.707107 0.707107 0.707107 0.707107 6.43567 20.3)" fill="#00BF36"/>
<rect width="0.899294" height="2.88524" transform="matrix(-0.707107 0.707107 0.707107 0.707107 9.9599 23.8239)" fill="#00BF36"/>
<rect width="0.899294" height="2.88524" transform="matrix(-0.707107 -0.707107 -0.707107 0.707107 11.9999 20.9359)" fill="#00BF36"/>
<rect width="0.899294" height="2.88524" transform="matrix(-0.707107 -0.707107 -0.707107 0.707107 8.47614 24.4598)" fill="#00BF36"/>
<rect width="0.899294" height="4.38406" transform="matrix(-0.707107 0.707107 0.707107 0.707107 0.235657 20.3)" fill="#00BF36"/>
<rect width="0.899294" height="2.88524" transform="matrix(-0.707107 0.707107 0.707107 0.707107 3.75983 23.8239)" fill="#00BF36"/>
<rect width="0.899294" height="2.88524" transform="matrix(-0.707107 -0.707107 -0.707107 0.707107 5.79987 20.9359)" fill="#00BF36"/>
<rect width="0.899294" height="2.88524" transform="matrix(-0.707107 -0.707107 -0.707107 0.707107 2.27606 24.4598)" fill="#00BF36"/>
<rect width="0.899294" height="2.88524" transform="matrix(-0.707107 0.707107 0.707107 0.707107 22.36 -0.976074)" fill="#00BF36"/>
<rect width="0.899294" height="2.88524" transform="matrix(-0.707107 -0.707107 -0.707107 0.707107 20.8762 -0.340179)" fill="#00BF36"/>
<rect width="0.899294" height="4.38406" transform="matrix(-0.707107 0.707107 0.707107 0.707107 18.8358 1.70001)" fill="#00BF36"/>
<rect width="0.899294" height="2.88524" transform="matrix(-0.707107 0.707107 0.707107 0.707107 22.36 5.22394)" fill="#00BF36"/>
<rect width="0.899294" height="2.88524" transform="matrix(-0.707107 -0.707107 -0.707107 0.707107 24.4001 2.33591)" fill="#00BF36"/>
<rect width="0.899294" height="2.88524" transform="matrix(-0.707107 -0.707107 -0.707107 0.707107 20.8762 5.85983)" fill="#00BF36"/>
<rect width="0.899294" height="4.38406" transform="matrix(-0.707107 0.707107 0.707107 0.707107 18.8358 7.89999)" fill="#00BF36"/>
<rect width="0.899294" height="2.88524" transform="matrix(-0.707107 0.707107 0.707107 0.707107 22.36 11.4239)" fill="#00BF36"/>
<rect width="0.899294" height="2.88524" transform="matrix(-0.707107 -0.707107 -0.707107 0.707107 24.4001 8.53589)" fill="#00BF36"/>
<rect width="0.899294" height="2.88524" transform="matrix(-0.707107 -0.707107 -0.707107 0.707107 20.8762 12.0598)" fill="#00BF36"/>
<rect width="0.899294" height="4.38406" transform="matrix(-0.707107 0.707107 0.707107 0.707107 18.8358 14.1)" fill="#00BF36"/>
<rect width="0.899294" height="2.88524" transform="matrix(-0.707107 0.707107 0.707107 0.707107 22.36 17.6239)" fill="#00BF36"/>
<rect width="0.899294" height="2.88524" transform="matrix(-0.707107 -0.707107 -0.707107 0.707107 24.4001 14.7359)" fill="#00BF36"/>
<rect width="0.899294" height="2.88524" transform="matrix(-0.707107 -0.707107 -0.707107 0.707107 20.8762 18.2598)" fill="#00BF36"/>
<rect width="0.899294" height="4.38406" transform="matrix(-0.707107 0.707107 0.707107 0.707107 18.8358 20.3)" fill="#00BF36"/>
<rect width="0.899294" height="2.88524" transform="matrix(-0.707107 0.707107 0.707107 0.707107 22.36 23.8239)" fill="#00BF36"/>
<rect width="0.899294" height="2.88524" transform="matrix(-0.707107 -0.707107 -0.707107 0.707107 24.4001 20.9359)" fill="#00BF36"/>
<rect width="0.899294" height="2.88524" transform="matrix(-0.707107 -0.707107 -0.707107 0.707107 20.8762 24.4598)" fill="#00BF36"/>
</mask>
<g mask="url(#mask0_256_26864)">
<circle cx="12" cy="12" r="12" fill="black"/>
</g>
</svg>
