<svg width="14" height="14" viewBox="0 0 14 14" fill="none" xmlns="http://www.w3.org/2000/svg">
<path d="M7 0.5C10.5899 0.5 13.5 3.41015 13.5 7C13.5 10.5899 10.5899 13.5 7 13.5C3.41015 13.5 0.5 10.5899 0.5 7C0.5 3.41015 3.41015 0.5 7 0.5Z" stroke="currentColor"/>
<path d="M6.82559 10V5.28952H7.88568V10H6.82559ZM5.52583 10V9.06897H9.18544V10H5.52583ZM5.52583 6.22055V5.28952H7.51695V6.22055H5.52583ZM7.35102 4.63503C7.17588 4.63503 7.02685 4.57357 6.90394 4.45067C6.7841 4.32468 6.72419 4.17412 6.72419 3.99898C6.72419 3.82383 6.7841 3.67634 6.90394 3.5565C7.02685 3.4336 7.17588 3.37214 7.35102 3.37214C7.53231 3.37214 7.68288 3.4336 7.80271 3.5565C7.92562 3.67634 7.98708 3.82383 7.98708 3.99898C7.98708 4.17412 7.92562 4.32468 7.80271 4.45067C7.68288 4.57357 7.53231 4.63503 7.35102 4.63503Z" fill="currentColor"/>
</svg>
