<svg width="20" height="20" viewBox="0 0 20 20" fill="none" xmlns="http://www.w3.org/2000/svg">
<path d="M6.91688 8.33268C6.80946 8.33855 6.7025 8.31459 6.60784 8.26345C6.51319 8.21232 6.43452 8.13601 6.38053 8.04295C6.32654 7.94989 6.29933 7.84372 6.30193 7.73616C6.30452 7.62861 6.33681 7.52387 6.39521 7.43352L9.50021 2.49935C9.54901 2.41149 9.61967 2.33773 9.70535 2.28521C9.79103 2.23269 9.88883 2.2032 9.98927 2.19959C10.0897 2.19599 10.1894 2.21839 10.2786 2.26463C10.3678 2.31087 10.4436 2.37938 10.4985 2.46352L13.5835 7.41602C13.6444 7.50334 13.6801 7.60564 13.687 7.71183C13.6938 7.81802 13.6715 7.92407 13.6224 8.01848C13.5733 8.11289 13.4993 8.19207 13.4084 8.24745C13.3176 8.30284 13.2133 8.33231 13.1069 8.33268H6.91688Z" stroke="black" stroke-width="1.3" stroke-linecap="round" stroke-linejoin="round"/>
<path d="M7.5 11.667H3.33333C2.8731 11.667 2.5 12.0401 2.5 12.5003V16.667C2.5 17.1272 2.8731 17.5003 3.33333 17.5003H7.5C7.96024 17.5003 8.33333 17.1272 8.33333 16.667V12.5003C8.33333 12.0401 7.96024 11.667 7.5 11.667Z" stroke="black" stroke-width="1.3" stroke-linecap="round" stroke-linejoin="round"/>
<path d="M14.5837 17.5003C16.1945 17.5003 17.5003 16.1945 17.5003 14.5837C17.5003 12.9728 16.1945 11.667 14.5837 11.667C12.9728 11.667 11.667 12.9728 11.667 14.5837C11.667 16.1945 12.9728 17.5003 14.5837 17.5003Z" stroke="black" stroke-width="1.3" stroke-linecap="round" stroke-linejoin="round"/>
</svg>
