<svg width="14" height="13" viewBox="0 0 14 13" fill="none" xmlns="http://www.w3.org/2000/svg">
<path d="M5.14535 11.5321V10.7543H13.2223V11.5321H5.14535ZM5.14535 6.86544V6.08766H13.2223V6.86544H5.14535ZM5.14535 2.19877V1.421H13.2223V2.19877H5.14535ZM1.80988 12.1753C1.52607 12.1753 1.28311 12.0742 1.08099 11.8721C0.878885 11.67 0.777832 11.427 0.777832 11.1432C0.777832 10.8594 0.878885 10.6164 1.08099 10.4143C1.28311 10.2122 1.52607 10.1112 1.80988 10.1112C2.0937 10.1112 2.33666 10.2122 2.53878 10.4143C2.74088 10.6164 2.84194 10.8594 2.84194 11.1432C2.84194 11.427 2.74088 11.67 2.53878 11.8721C2.33666 12.0742 2.0937 12.1753 1.80988 12.1753ZM1.80988 7.50861C1.52607 7.50861 1.28311 7.40755 1.08099 7.20545C0.878885 7.00333 0.777832 6.76036 0.777832 6.47655C0.777832 6.19274 0.878885 5.94978 1.08099 5.74766C1.28311 5.54555 1.52607 5.4445 1.80988 5.4445C2.0937 5.4445 2.33666 5.54555 2.53878 5.74766C2.74088 5.94978 2.84194 6.19274 2.84194 6.47655C2.84194 6.76036 2.74088 7.00333 2.53878 7.20545C2.33666 7.40755 2.0937 7.50861 1.80988 7.50861ZM1.80988 2.84194C1.52607 2.84194 1.28311 2.74089 1.08099 2.53878C0.878885 2.33666 0.777832 2.0937 0.777832 1.80989C0.777832 1.52607 0.878885 1.28311 1.08099 1.08099C1.28311 0.878885 1.52607 0.777832 1.80988 0.777832C2.0937 0.777832 2.33666 0.878885 2.53878 1.08099C2.74088 1.28311 2.84194 1.52607 2.84194 1.80989C2.84194 2.0937 2.74088 2.33666 2.53878 2.53878C2.33666 2.74089 2.0937 2.84194 1.80988 2.84194Z" fill="black"/>
</svg>
