<svg width="24" height="24" viewBox="0 0 24 24" fill="none" xmlns="http://www.w3.org/2000/svg">
<g clip-path="url(#clip0_288_2998)">
<mask id="mask0_288_2998" style="mask-type:alpha" maskUnits="userSpaceOnUse" x="-25" y="-25" width="72" height="72">
<rect width="0.949402" height="3.046" transform="matrix(-0.707107 -0.707107 -0.707107 0.707107 1.18182 1.85318)" fill="#00BF36"/>
<rect width="0.949402" height="3.046" transform="matrix(-0.707107 -0.707107 -0.707107 0.707107 1.18182 8.39862)" fill="#00BF36"/>
<rect width="0.949402" height="3.046" transform="matrix(-0.707107 -0.707107 -0.707107 0.707107 1.18182 14.9441)" fill="#00BF36"/>
<rect width="0.949402" height="3.046" transform="matrix(-0.707107 -0.707107 -0.707107 0.707107 1.18182 21.4895)" fill="#00BF36"/>
<rect width="0.949402" height="3.046" transform="matrix(-0.707107 -0.707107 -0.707107 0.707107 4.00702 -0.972046)" fill="#00BF36"/>
<rect width="0.949402" height="3.046" transform="matrix(-0.707107 -0.707107 -0.707107 0.707107 7.72717 1.85318)" fill="#00BF36"/>
<rect width="0.949402" height="3.046" transform="matrix(-0.707107 -0.707107 -0.707107 0.707107 4.00702 5.57343)" fill="#00BF36"/>
<rect width="0.949402" height="3.046" transform="matrix(-0.707107 -0.707107 -0.707107 0.707107 7.72717 8.39862)" fill="#00BF36"/>
<rect width="0.949402" height="3.046" transform="matrix(-0.707107 -0.707107 -0.707107 0.707107 4.00702 12.1189)" fill="#00BF36"/>
<rect width="0.949402" height="3.046" transform="matrix(-0.707107 -0.707107 -0.707107 0.707107 7.72717 14.9441)" fill="#00BF36"/>
<rect width="0.949402" height="3.046" transform="matrix(-0.707107 -0.707107 -0.707107 0.707107 4.00702 18.6643)" fill="#00BF36"/>
<rect width="0.949402" height="3.046" transform="matrix(-0.707107 -0.707107 -0.707107 0.707107 7.72717 21.4895)" fill="#00BF36"/>
<rect width="0.949402" height="3.046" transform="matrix(-0.707107 -0.707107 -0.707107 0.707107 10.5526 -0.972015)" fill="#00BF36"/>
<rect width="0.949402" height="3.046" transform="matrix(-0.707107 -0.707107 -0.707107 0.707107 14.2728 1.85318)" fill="#00BF36"/>
<rect width="0.949402" height="3.046" transform="matrix(-0.707107 -0.707107 -0.707107 0.707107 10.5526 5.57343)" fill="#00BF36"/>
<rect width="0.949402" height="3.046" transform="matrix(-0.707107 -0.707107 -0.707107 0.707107 14.2728 8.39862)" fill="#00BF36"/>
<rect width="0.949402" height="3.046" transform="matrix(-0.707107 -0.707107 -0.707107 0.707107 10.5526 12.1189)" fill="#00BF36"/>
<rect width="0.949402" height="3.046" transform="matrix(-0.707107 -0.707107 -0.707107 0.707107 14.2728 14.9441)" fill="#00BF36"/>
<rect width="0.949402" height="3.046" transform="matrix(-0.707107 -0.707107 -0.707107 0.707107 10.5526 18.6643)" fill="#00BF36"/>
<rect width="0.949402" height="3.046" transform="matrix(-0.707107 -0.707107 -0.707107 0.707107 14.2728 21.4895)" fill="#00BF36"/>
<rect width="0.949402" height="3.046" transform="matrix(-0.707107 -0.707107 -0.707107 0.707107 17.0982 -0.972015)" fill="#00BF36"/>
<rect width="0.949402" height="3.046" transform="matrix(-0.707107 -0.707107 -0.707107 0.707107 20.8183 1.85318)" fill="#00BF36"/>
<rect width="0.949402" height="3.046" transform="matrix(-0.707107 -0.707107 -0.707107 0.707107 17.0982 5.57343)" fill="#00BF36"/>
<rect width="0.949402" height="3.046" transform="matrix(-0.707107 -0.707107 -0.707107 0.707107 20.8183 8.39862)" fill="#00BF36"/>
<rect width="0.949402" height="3.046" transform="matrix(-0.707107 -0.707107 -0.707107 0.707107 17.0982 12.1189)" fill="#00BF36"/>
<rect width="0.949402" height="3.046" transform="matrix(-0.707107 -0.707107 -0.707107 0.707107 20.8183 14.9441)" fill="#00BF36"/>
<rect width="0.949402" height="3.046" transform="matrix(-0.707107 -0.707107 -0.707107 0.707107 17.0982 18.6643)" fill="#00BF36"/>
<rect width="0.949402" height="3.046" transform="matrix(-0.707107 -0.707107 -0.707107 0.707107 20.8183 21.4895)" fill="#00BF36"/>
<rect width="0.949402" height="3.046" transform="matrix(-0.707107 -0.707107 -0.707107 0.707107 23.6434 -0.972015)" fill="#00BF36"/>
<rect width="0.949402" height="3.046" transform="matrix(-0.707107 -0.707107 -0.707107 0.707107 23.6434 5.57343)" fill="#00BF36"/>
<rect width="0.949402" height="3.046" transform="matrix(-0.707107 -0.707107 -0.707107 0.707107 23.6434 12.1189)" fill="#00BF36"/>
<rect width="0.949402" height="3.046" transform="matrix(-0.707107 -0.707107 -0.707107 0.707107 23.6434 18.6643)" fill="#00BF36"/>
</mask>
<g mask="url(#mask0_288_2998)">
<circle cx="12" cy="12" r="12" fill="black"/>
</g>
</g>
<defs>
<clipPath id="clip0_288_2998">
<rect width="24" height="24" fill="white"/>
</clipPath>
</defs>
</svg>
