<svg width="12" height="13" viewBox="0 0 12 13" fill="none" xmlns="http://www.w3.org/2000/svg">
<path d="M6.14876 12.2939C4.71446 12.2939 3.49314 11.806 2.48481 10.83C1.47648 9.854 0.972321 8.64886 0.972321 7.21455C0.972321 6.50279 1.10982 5.83956 1.38482 5.22486C1.65982 4.61016 2.03457 4.06555 2.50908 3.59104L6.14876 -0.000115395L9.78845 3.59104C10.263 4.06555 10.6377 4.61016 10.9127 5.22486C11.1877 5.83956 11.3252 6.50279 11.3252 7.21455C11.3252 8.64886 10.821 9.854 9.81272 10.83C8.80439 11.806 7.58307 12.2939 6.14876 12.2939ZM1.99143 7.76455H10.3061C10.4463 7.02044 10.3654 6.33564 10.0634 5.71015C9.76149 5.08466 9.45953 4.62633 9.15757 4.33516L6.14876 1.37488L3.13996 4.33516C2.838 4.62633 2.53604 5.08466 2.23408 5.71015C1.93212 6.33564 1.85124 7.02044 1.99143 7.76455Z" fill="currentColor"/>
</svg>
