<svg width="228" height="81" viewBox="0 0 228 81" fill="none" xmlns="http://www.w3.org/2000/svg">
<path d="M17.9262 76.3035C15.1021 73.9 12.3832 70.9858 9.76941 67.5608C7.18567 64.1659 5.06761 60.125 3.41521 55.4383C1.79286 50.7515 0.981689 45.2685 0.981689 38.9894C0.981689 32.7404 1.83793 27.1673 3.55041 22.2702C5.29293 17.3431 7.53117 13.0769 10.2651 9.47169C13.0291 5.83642 15.9133 2.81705 18.9177 0.413574H25.9929C24.7611 1.40501 23.1538 3.04238 21.1709 5.32569C19.2181 7.57895 17.2502 10.373 15.2674 13.7078C13.2845 17.0427 11.6171 20.8432 10.2651 25.1093C8.91318 29.3755 8.2372 34.0022 8.2372 38.9894C8.2372 44.0668 8.88313 48.6785 10.175 52.8245C11.4969 56.9404 13.1042 60.5757 14.997 63.7303C16.9198 66.8848 18.7975 69.5136 20.6301 71.6167C22.4928 73.7498 23.95 75.312 25.0015 76.3035H17.9262Z" fill="#E6E6E6"/>
<path d="M210.074 76.3035C212.898 73.9 215.617 70.9858 218.231 67.5608C220.814 64.1659 222.932 60.125 224.585 55.4383C226.207 50.7515 227.018 45.2685 227.018 38.9894C227.018 32.7404 226.162 27.1673 224.45 22.2702C222.707 17.3431 220.469 13.0769 217.735 9.47169C214.971 5.83642 212.087 2.81705 209.082 0.413574H202.007C203.239 1.40501 204.846 3.04238 206.829 5.32569C208.782 7.57895 210.75 10.373 212.733 13.7078C214.715 17.0427 216.383 20.8432 217.735 25.1093C219.087 29.3755 219.763 34.0022 219.763 38.9894C219.763 44.0668 219.117 48.6785 217.825 52.8245C216.503 56.9404 214.896 60.5757 213.003 63.7303C211.08 66.8848 209.202 69.5136 207.37 71.6167C205.507 73.7498 204.05 75.312 202.998 76.3035H210.074Z" fill="#E6E6E6"/>
<path d="M58.3249 61.6053L54.5 57.7959L72.0879 40.2792L75.9129 44.0886L58.3249 61.6053Z" fill="#E6E6E6" stroke="#E6E6E6" stroke-width="2.2"/>
<path fill-rule="evenodd" clip-rule="evenodd" d="M84.4245 35.5954L58.34 9.5866L54.5234 13.3877L73.9366 32.7521L76.7915 35.5954L80.608 39.3965L84.4245 35.5954Z" fill="#E6E6E6" stroke="#E6E6E6" stroke-width="2.2"/>
<path d="M170.6 61.6053L174.425 57.7959L156.837 40.2792L153.012 44.0886L170.6 61.6053Z" fill="#E6E6E6" stroke="#E6E6E6" stroke-width="2.2"/>
<path fill-rule="evenodd" clip-rule="evenodd" d="M144.5 35.5954L170.585 9.5866L174.401 13.3877L154.988 32.7521L152.133 35.5954L148.317 39.3965L144.5 35.5954Z" fill="#E6E6E6" stroke="#E6E6E6" stroke-width="2.2"/>
<path fill-rule="evenodd" clip-rule="evenodd" d="M137.5 79.5864L90.5139 79.5372L90.5 74.5864L137.486 74.6357L137.5 79.5864Z" fill="#E6E6E6" stroke="#E6E6E6" stroke-width="2.2"/>
</svg>
