<svg width="27" height="27" viewBox="0 0 27 27" fill="none" xmlns="http://www.w3.org/2000/svg">
<path d="M9.98176 1.6943L11.7409 0.847148L12.1748 1.74812L13.5 1.10992L14.8252 1.74812L15.2591 0.847148L17.0182 1.6943L16.5844 2.59526L20.1026 4.28956L20.5365 3.38859L22.2956 4.23574L21.8617 5.13671L23.187 5.77491L23.5143 7.20893L24.4892 6.98641L24.9237 8.88994L23.9487 9.11246L24.8177 12.9195L25.7926 12.697L26.2271 14.6005L25.2521 14.823L25.5794 16.2571L24.6623 17.407L25.4442 18.0305L24.2268 19.557L23.445 18.9336L21.0103 21.9866L21.7921 22.6101L20.5748 24.1366L19.7929 23.5131L18.8759 24.6631H17.405V25.6631H15.4525V24.6631H11.5475V25.6631H9.59505V24.6631H8.12414L7.20705 23.5131L6.42522 24.1366L5.20787 22.6101L5.9897 21.9866L3.555 18.9336L2.77317 19.557L1.55582 18.0305L2.33765 17.407L1.42056 16.2571L1.74787 14.823L0.77294 14.6005L1.20741 12.697L2.18234 12.9195L3.05127 9.11246L2.07634 8.88994L2.51081 6.98641L3.48574 7.20893L3.81304 5.77491L5.13828 5.13671L4.7044 4.23574L6.46352 3.38859L6.8974 4.28956L10.4156 2.59526L9.98176 1.6943Z" fill="#4879FF" fill-opacity="0.2" stroke="#DD0303" stroke-width="2" stroke-dasharray="4 2"/>
</svg>
