<svg width="27" height="26" viewBox="0 0 27 26" fill="none" xmlns="http://www.w3.org/2000/svg">
<path d="M13.5 0L24.0547 5.08289L26.6615 16.504L19.3574 25.6631H7.64257L0.33847 16.504L2.94527 5.08289L13.5 0Z" fill="#4879FF" fill-opacity="0.32"/>
<path fill-rule="evenodd" clip-rule="evenodd" d="M14.8193 0.635361L13.5 0L12.1807 0.635361L12.8315 1.98681L13.5 1.66487L14.1685 1.98681L14.8193 0.635361ZM9.54198 1.90608L10.1928 3.25754L7.55412 4.52826L6.90329 3.1768L9.54198 1.90608ZM4.26461 4.44753L4.91544 5.79898L4.24692 6.12092L4.08181 6.84431L2.61942 6.51053L2.94527 5.08289L4.26461 4.44753ZM1.96772 9.36582L3.43011 9.6996L2.77841 12.5549L1.31602 12.2211L1.96772 9.36582ZM0.664321 15.0764L2.12671 15.4102L1.9616 16.1336L2.42423 16.7137L1.25148 17.6489L0.33847 16.504L0.664321 15.0764ZM3.07751 19.9387L4.25025 19.0034L6.07628 21.2932L4.90353 22.2284L3.07751 19.9387ZM17.8931 25.6631V24.1631H18.6351L19.0977 23.583L20.2704 24.5182L19.3574 25.6631H17.8931ZM22.0965 22.2284L20.9237 21.2932L22.7497 19.0034L23.9225 19.9387L22.0965 22.2284ZM25.7485 17.6489L24.5758 16.7137L25.0384 16.1336L24.8733 15.4102L26.3357 15.0764L26.6615 16.504L25.7485 17.6489ZM25.684 12.2211L24.2216 12.5549L23.5699 9.6996L25.0323 9.36582L25.684 12.2211ZM24.3806 6.51053L22.9182 6.84431L22.7531 6.12092L22.0846 5.79898L22.7354 4.44753L24.0547 5.08289L24.3806 6.51053ZM20.0967 3.1768L19.4459 4.52826L16.8072 3.25754L17.458 1.90608L20.0967 3.1768ZM14.9644 25.6631V24.1631H12.0356V25.6631H14.9644ZM9.10692 25.6631V24.1631H8.36493L7.9023 23.583L6.72955 24.5182L7.64257 25.6631H9.10692Z" fill="#FF00E5"/>
</svg>
