<svg width="27" height="27" viewBox="0 0 27 27" fill="none" xmlns="http://www.w3.org/2000/svg">
<path d="M13.5 0.5L24.0548 5.58289L26.6616 17.004L19.3575 26.1631H7.6426L0.338501 17.004L2.9453 5.58289L13.5 0.5Z" fill="#4879FF" fill-opacity="0.2"/>
<path fill-rule="evenodd" clip-rule="evenodd" d="M15.2591 1.34715L13.5 0.5L11.7409 1.34715L12.6087 3.14909L13.5 2.71983L14.3914 3.14909L15.2591 1.34715ZM9.98179 2.1943L10.8496 3.99623L7.33131 5.69053L6.46354 3.88859L9.98179 2.1943ZM4.70442 4.73574L5.57219 6.53768L4.68084 6.96693L4.46069 7.93145L2.51084 7.48641L2.9453 5.58289L4.70442 4.73574ZM2.07637 9.38994L4.02622 9.83498L3.15729 13.642L1.20743 13.197L2.07637 9.38994ZM0.772968 15.1005L2.72282 15.5456L2.50268 16.5101L3.11951 17.2836L1.55585 18.5305L0.338501 17.004L0.772968 15.1005ZM2.7732 20.057L4.33686 18.8101L6.77156 21.8631L5.2079 23.1101L2.7732 20.057ZM17.405 26.1631V24.1631H18.3943L19.0111 23.3896L20.5748 24.6366L19.3575 26.1631H17.405ZM21.7922 23.1101L20.2285 21.8631L22.6632 18.8101L24.2269 20.057L21.7922 23.1101ZM25.4442 18.5305L23.8805 17.2836L24.4974 16.5101L24.2772 15.5455L26.2271 15.1005L26.6616 17.004L25.4442 18.5305ZM25.7926 13.197L24.9237 9.38994L22.9738 9.83498L23.8428 13.642L25.7926 13.197ZM24.4892 7.48641L24.0548 5.58289L22.2956 4.73574L21.4279 6.53768L22.3192 6.96693L22.5394 7.93145L24.4892 7.48641ZM20.5365 3.88859L19.6687 5.69053L16.1505 3.99623L17.0183 2.1943L20.5365 3.88859ZM15.4525 26.1631V24.1631H11.5476V26.1631H15.4525ZM9.59507 26.1631V24.1631H8.60575L7.98891 23.3896L6.42525 24.6366L7.6426 26.1631H9.59507Z" fill="#DD0303"/>
</svg>
