<svg width="14" height="14" viewBox="0 0 14 14" fill="none" xmlns="http://www.w3.org/2000/svg">
<path d="M1.16602 3.5013C1.51602 3.79297 1.86602 4.08464 2.62435 4.08464C4.08268 4.08464 4.08268 2.91797 5.54102 2.91797C7.05768 2.91797 6.94102 4.08464 8.45768 4.08464C9.91602 4.08464 9.91602 2.91797 11.3743 2.91797C12.1327 2.91797 12.4827 3.20964 12.8327 3.5013" stroke="black" stroke-width="1.3" stroke-linecap="square" stroke-linejoin="round"/>
<path d="M1.16602 7.0013C1.51602 7.29297 1.86602 7.58464 2.62435 7.58464C4.08268 7.58464 4.08268 6.41797 5.54102 6.41797C7.05768 6.41797 6.94102 7.58464 8.45768 7.58464C9.91602 7.58464 9.91602 6.41797 11.3743 6.41797C12.1327 6.41797 12.4827 6.70964 12.8327 7.0013" stroke="black" stroke-width="1.3" stroke-linecap="square" stroke-linejoin="round"/>
<path d="M1.16602 10.5013C1.51602 10.793 1.86602 11.0846 2.62435 11.0846C4.08268 11.0846 4.08268 9.91797 5.54102 9.91797C7.05768 9.91797 6.94102 11.0846 8.45768 11.0846C9.91602 11.0846 9.91602 9.91797 11.3743 9.91797C12.1327 9.91797 12.4827 10.2096 12.8327 10.5013" stroke="black" stroke-width="1.3" stroke-linecap="square" stroke-linejoin="round"/>
</svg>
