<svg width="14" height="14" viewBox="0 0 14 14" fill="none" xmlns="http://www.w3.org/2000/svg">
<path d="M7.00024 14.0005C6.03696 14.0005 5.12952 13.8163 4.27793 13.4478C3.42633 13.0793 2.68468 12.5793 2.05296 11.9475C1.42124 11.3158 0.921148 10.5742 0.552689 9.72256C0.18423 8.87097 0 7.96353 0 7.00024C0 6.03396 0.18423 5.12578 0.552689 4.27569C0.921148 3.42559 1.42124 2.68468 2.05296 2.05296C2.68468 1.42124 3.42633 0.921147 4.27793 0.552688C5.12952 0.184229 6.03696 0 7.00024 0C7.96652 0 8.87471 0.184229 9.7248 0.552688C10.5749 0.921147 11.3158 1.42124 11.9475 2.05296C12.5793 2.68468 13.0793 3.42559 13.4478 4.27569C13.8163 5.12578 14.0005 6.03396 14.0005 7.00024C14.0005 7.96353 13.8163 8.87097 13.4478 9.72256C13.0793 10.5742 12.5793 11.3158 11.9475 11.9475C11.3158 12.5793 10.5749 13.0793 9.7248 13.4478C8.87471 13.8163 7.96652 14.0005 7.00024 14.0005ZM7.00024 13.2287C7.45696 12.6423 7.8334 12.0665 8.12956 11.5011C8.42572 10.9356 8.66654 10.3029 8.85202 9.6029H5.14847C5.35388 10.3428 5.59969 10.9955 5.88588 11.5609C6.17208 12.1263 6.54353 12.6822 7.00024 13.2287ZM6.01004 13.112C5.64706 12.6842 5.31575 12.1555 5.01608 11.5257C4.71643 10.896 4.49331 10.2551 4.34672 9.6029H1.36415C1.8099 10.5702 2.44187 11.3634 3.26005 11.9827C4.07824 12.6019 4.9949 12.9784 6.01004 13.112ZM7.99045 13.112C9.00559 12.9784 9.92225 12.6019 10.7404 11.9827C11.5586 11.3634 12.1906 10.5702 12.6363 9.6029H9.65376C9.45732 10.265 9.20927 10.911 8.90962 11.5407C8.60996 12.1704 8.30357 12.6942 7.99045 13.112ZM1.04704 8.82509H4.18519C4.12635 8.506 4.08472 8.19513 4.0603 7.89248C4.03586 7.58983 4.02364 7.29241 4.02364 7.00024C4.02364 6.70808 4.03586 6.41066 4.0603 6.108C4.08472 5.80536 4.12635 5.49449 4.18519 5.1754H1.04704C0.962287 5.44463 0.896226 5.73805 0.848858 6.05566C0.801489 6.37326 0.777805 6.68812 0.777805 7.00024C0.777805 7.31236 0.801489 7.62723 0.848858 7.94483C0.896226 8.26243 0.962287 8.55585 1.04704 8.82509ZM4.963 8.82509H9.03749C9.09633 8.506 9.13796 8.20011 9.16239 7.90744C9.18682 7.61476 9.19904 7.31236 9.19904 7.00024C9.19904 6.68812 9.18682 6.38573 9.16239 6.09305C9.13796 5.80038 9.09633 5.49449 9.03749 5.1754H4.963C4.90416 5.49449 4.86253 5.80038 4.8381 6.09305C4.81367 6.38573 4.80145 6.68812 4.80145 7.00024C4.80145 7.31236 4.81367 7.61476 4.8381 7.90744C4.86253 8.20011 4.90416 8.506 4.963 8.82509ZM9.8153 8.82509H12.9534C13.0382 8.55585 13.1043 8.26243 13.1516 7.94483C13.199 7.62723 13.2227 7.31236 13.2227 7.00024C13.2227 6.68812 13.199 6.37326 13.1516 6.05566C13.1043 5.73805 13.0382 5.44463 12.9534 5.1754H9.8153C9.87414 5.49449 9.91577 5.80536 9.94021 6.108C9.96463 6.41066 9.97685 6.70808 9.97685 7.00024C9.97685 7.29241 9.96463 7.58983 9.94021 7.89248C9.91577 8.19513 9.87414 8.506 9.8153 8.82509ZM9.65376 4.39759H12.6363C12.1806 3.41038 11.5561 2.61711 10.7629 2.0178C9.96962 1.4185 9.04548 1.03708 7.99045 0.873533C8.35342 1.35118 8.67975 1.89739 8.96943 2.51215C9.25913 3.12692 9.48724 3.7554 9.65376 4.39759ZM5.14847 4.39759H8.85202C8.6466 3.66765 8.39332 3.00751 8.09217 2.41718C7.79101 1.82684 7.42704 1.27839 7.00024 0.771816C6.57345 1.27839 6.20948 1.82684 5.90832 2.41718C5.60717 3.00751 5.35388 3.66765 5.14847 4.39759ZM1.36415 4.39759H4.34672C4.51325 3.7554 4.74136 3.12692 5.03106 2.51215C5.32074 1.89739 5.64706 1.35118 6.01004 0.873533C4.94504 1.03708 4.01841 1.421 3.23013 2.02529C2.44186 2.62958 1.81987 3.42035 1.36415 4.39759Z" fill="black"/>
</svg>
