<svg fill="none" height="315" viewBox="0 0 495 315" width="495" xmlns="http://www.w3.org/2000/svg" xmlns:xlink="http://www.w3.org/1999/xlink">
  <clipPath id="a">
    <path d="m0 .000488h495v315h-495z" />
  </clipPath>
  <g clip-path="url(#a)" fill="#000">
    <g fill-opacity=".08">
      <path d="m0 0h24v117h-24z" transform="matrix(-.707107 .707107 .707107 .707107 16.9707 -15.9995)" />
      <path d="m0 0h24v77h-24z" transform="matrix(-.707107 .707107 .707107 .707107 111.016 78.0457)" />
      <path d="m0 0h24v77h-24z" transform="matrix(-.707107 -.707107 -.707107 .707107 165.463 .971069)" />
      <path d="m0 0h24v77h-24z" transform="matrix(-.707107 -.707107 -.707107 .707107 71.418 95.0162)" />
      <path d="m0 0h24v117h-24z" transform="matrix(-.707107 .707107 .707107 .707107 181.971 -15.9995)" />
      <path d="m0 0h24v77h-24z" transform="matrix(-.707107 .707107 .707107 .707107 276.016 78.0457)" />
      <path d="m0 0h24v77h-24z" transform="matrix(-.707107 -.707107 -.707107 .707107 330.463 .971069)" />
      <path d="m0 0h24v77h-24z" transform="matrix(-.707107 -.707107 -.707107 .707107 236.418 95.0162)" />
      <path d="m0 0h24v117h-24z" transform="matrix(-.707107 .707107 .707107 .707107 346.971 -15.9995)" />
      <path d="m0 0h24v77h-24z" transform="matrix(-.707107 .707107 .707107 .707107 441.016 78.0457)" />
      <path d="m0 0h24v77h-24z" transform="matrix(-.707107 -.707107 -.707107 .707107 495.463 .971069)" />
      <path d="m0 0h24v77h-24z" transform="matrix(-.707107 -.707107 -.707107 .707107 401.418 95.0162)" />
      <path d="m0 0h24v117h-24z" transform="matrix(-.707107 .707107 .707107 .707107 16.9707 150)" />
      <path d="m0 0h24v77h-24z" transform="matrix(-.707107 .707107 .707107 .707107 111.016 244.046)" />
      <path d="m0 0h24v77h-24z" transform="matrix(-.707107 -.707107 -.707107 .707107 165.463 166.971)" />
      <path d="m0 0h24v77h-24z" transform="matrix(-.707107 -.707107 -.707107 .707107 71.418 261.016)" />
    </g>
    <path d="m0 0h24v117h-24z" transform="matrix(-.707107 .707107 .707107 .707107 181.971 150)" />
    <path d="m0 0h24v77h-24z" transform="matrix(-.707107 .707107 .707107 .707107 276.016 244.046)" />
    <path d="m0 0h24v77h-24z" transform="matrix(-.707107 -.707107 -.707107 .707107 330.463 166.971)" />
    <path d="m0 0h24v77h-24z" transform="matrix(-.707107 -.707107 -.707107 .707107 236.418 261.016)" />
    <path d="m0 0h24v117h-24z" fill-opacity=".08" transform="matrix(-.707107 .707107 .707107 .707107 346.971 150)" />
    <path d="m0 0h24v77h-24z" fill-opacity=".08" transform="matrix(-.707107 .707107 .707107 .707107 441.016 244.046)" />
    <path d="m0 0h24v77h-24z" fill-opacity=".08" transform="matrix(-.707107 -.707107 -.707107 .707107 495.463 166.971)" />
    <path d="m0 0h24v77h-24z" fill-opacity=".08" transform="matrix(-.707107 -.707107 -.707107 .707107 401.418 261.016)" />
  </g>
</svg>
