<svg width="495" height="403" viewBox="0 0 495 403" fill="none" xmlns="http://www.w3.org/2000/svg">
  <g clip-path="url(#clip0_1344_21103)">
    <rect x="231" y="314.602" width="24.2095" height="24.2282" transform="rotate(-45 231 314.602)" fill="black" />
    <rect x="231" y="385.602" width="24.2095" height="24.2282" transform="rotate(-45 231 385.602)" fill="black" />
    <rect width="24" height="117" transform="matrix(-0.707107 0.707107 0.707107 0.707107 16.9707 -17)" fill="black" fill-opacity="0.08" />
    <rect width="24" height="77" transform="matrix(-0.707107 0.707107 0.707107 0.707107 111.016 77.0454)" fill="black" fill-opacity="0.08" />
    <rect width="24" height="77" transform="matrix(-0.707107 -0.707107 -0.707107 0.707107 165.463 -0.0292969)" fill="black" fill-opacity="0.08" />
    <rect width="24" height="77" transform="matrix(-0.707107 -0.707107 -0.707107 0.707107 71.418 94.0156)" fill="black" fill-opacity="0.08" />
    <rect width="24" height="117" transform="matrix(-0.707107 0.707107 0.707107 0.707107 181.971 -17)" fill="black" fill-opacity="0.08" />
    <rect width="24" height="77" transform="matrix(-0.707107 0.707107 0.707107 0.707107 276.016 77.0454)" fill="black" fill-opacity="0.08" />
    <rect width="24" height="77" transform="matrix(-0.707107 -0.707107 -0.707107 0.707107 330.463 -0.0292969)" fill="black" fill-opacity="0.08" />
    <rect width="24" height="77" transform="matrix(-0.707107 -0.707107 -0.707107 0.707107 236.418 94.0156)" fill="black" fill-opacity="0.08" />
    <rect width="24" height="117" transform="matrix(-0.707107 0.707107 0.707107 0.707107 346.971 -17)" fill="black" fill-opacity="0.08" />
    <rect width="24" height="77" transform="matrix(-0.707107 0.707107 0.707107 0.707107 441.016 77.0454)" fill="black" fill-opacity="0.08" />
    <rect width="24" height="77" transform="matrix(-0.707107 -0.707107 -0.707107 0.707107 495.463 -0.0292969)" fill="black" fill-opacity="0.08" />
    <rect width="24" height="77" transform="matrix(-0.707107 -0.707107 -0.707107 0.707107 401.418 94.0156)" fill="black" fill-opacity="0.08" />
    <rect width="24" height="117" transform="matrix(-0.707107 0.707107 0.707107 0.707107 16.9707 149)" fill="black" fill-opacity="0.08" />
    <rect width="24" height="77" transform="matrix(-0.707107 0.707107 0.707107 0.707107 111.016 243.045)" fill="black" fill-opacity="0.08" />
    <rect width="24" height="77" transform="matrix(-0.707107 -0.707107 -0.707107 0.707107 165.463 165.971)" fill="black" fill-opacity="0.08" />
    <rect width="24" height="77" transform="matrix(-0.707107 -0.707107 -0.707107 0.707107 71.418 260.016)" fill="black" fill-opacity="0.08" />
    <rect width="24" height="117" transform="matrix(-0.707107 0.707107 0.707107 0.707107 181.971 149)" fill="black" />
    <rect width="24" height="77" transform="matrix(-0.707107 0.707107 0.707107 0.707107 276.016 243.045)" fill="black" fill-opacity="0.08" />
    <rect width="24" height="77" transform="matrix(-0.707107 -0.707107 -0.707107 0.707107 330.463 165.971)" fill="black" />
    <rect width="24" height="77" transform="matrix(-0.707107 -0.707107 -0.707107 0.707107 236.418 260.016)" fill="black" fill-opacity="0.08" />
    <rect width="24" height="117" transform="matrix(-0.707107 0.707107 0.707107 0.707107 346.971 149)" fill="black" fill-opacity="0.08" />
    <rect width="24" height="77" transform="matrix(-0.707107 0.707107 0.707107 0.707107 441.016 243.045)" fill="black" fill-opacity="0.08" />
    <rect width="24" height="77" transform="matrix(-0.707107 -0.707107 -0.707107 0.707107 495.463 165.971)" fill="black" fill-opacity="0.08" />
    <rect width="24" height="77" transform="matrix(-0.707107 -0.707107 -0.707107 0.707107 401.418 260.016)" fill="black" fill-opacity="0.08" />
  </g>
  <defs>
    <clipPath id="clip0_1344_21103">
      <rect width="495" height="403" fill="white" />
    </clipPath>
  </defs>
</svg>
