<svg width="1201" height="146" viewBox="0 0 1201 146" fill="none" xmlns="http://www.w3.org/2000/svg">
<path d="M189.984 179.64C189.984 192.972 187.225 204.58 181.709 214.464C176.422 224.119 169.411 232.164 160.676 238.6C151.941 244.807 142.057 249.404 131.023 252.392C120.22 255.61 109.186 257.219 97.9227 257.219C86.8891 257.219 76.0855 255.955 65.5117 253.427C55.1677 250.898 45.6283 247.105 36.8934 242.048C28.3884 236.761 20.9178 230.095 14.4815 222.05C8.04529 213.775 3.21812 203.891 0 192.397L53.7885 178.261C56.0872 186.306 60.7994 193.432 67.9252 199.638C75.0511 205.615 84.1308 208.603 95.1643 208.603C99.3019 208.603 103.439 208.028 107.577 206.879C111.944 205.73 115.737 204.006 118.955 201.707C122.403 199.178 125.162 195.96 127.231 192.053C129.529 188.145 130.678 183.318 130.678 177.571C130.678 171.365 129.184 166.193 126.196 162.055C123.438 157.918 119.645 154.699 114.818 152.401C110.22 149.872 104.934 148.148 98.9571 147.229C92.9806 146.079 87.0041 145.505 81.0276 145.505H65.5117V103.095H82.4068C87.9235 103.095 93.2104 102.75 98.2675 102.06C103.325 101.141 107.807 99.6467 111.715 97.5779C115.852 95.2792 119.07 92.291 121.369 88.6131C123.897 84.9353 125.162 80.1081 125.162 74.1316C125.162 65.3967 122.059 58.7306 115.852 54.1333C109.646 49.536 102.52 47.2373 94.4747 47.2373C86.1995 47.2373 78.9588 49.7659 72.7524 54.8229C66.7759 59.6501 62.8682 66.2012 61.0293 74.4764L7.24076 62.0637C10.229 51.7197 14.7114 42.755 20.6879 35.1694C26.6644 27.354 33.6753 20.9178 41.7206 15.8607C49.9957 10.5738 58.9605 6.6661 68.6148 4.13759C78.2692 1.3792 88.1534 0 98.2675 0C109.071 0 119.53 1.3792 129.644 4.13759C139.988 6.89598 149.183 11.1485 157.228 16.8951C165.273 22.6417 171.709 29.8825 176.537 38.6174C181.594 47.1224 184.122 57.2365 184.122 68.9596C184.122 82.5217 180.215 94.015 172.399 103.439C164.814 112.634 155.044 118.84 143.091 122.059V123.093C149.987 124.702 156.309 127.345 162.055 131.023C167.802 134.471 172.744 138.724 176.881 143.781C181.019 148.608 184.237 154.125 186.536 160.331C188.834 166.308 189.984 172.744 189.984 179.64Z" fill="white"/>
<path d="M411.856 127.92C411.856 145.16 410.132 161.595 406.684 177.226C403.236 192.857 397.719 206.649 390.134 218.602C382.548 230.325 372.664 239.75 360.481 246.875C348.528 253.771 333.932 257.219 316.692 257.219C299.452 257.219 284.74 253.771 272.558 246.875C260.375 239.75 250.376 230.325 242.56 218.602C234.975 206.649 229.458 192.857 226.01 177.226C222.562 161.595 220.838 145.16 220.838 127.92C220.838 110.68 222.562 94.3598 226.01 78.9588C229.458 63.3279 234.975 49.7659 242.56 38.2726C250.376 26.5495 260.375 17.2399 272.558 10.344C284.74 3.44798 299.452 0 316.692 0C333.932 0 348.528 3.44798 360.481 10.344C372.664 17.2399 382.548 26.5495 390.134 38.2726C397.719 49.7659 403.236 63.3279 406.684 78.9588C410.132 94.3598 411.856 110.68 411.856 127.92ZM352.551 127.92C352.551 120.335 352.091 111.944 351.172 102.75C350.252 93.5552 348.528 85.0502 346 77.2348C343.471 69.1895 339.793 62.5234 334.966 57.2365C330.369 51.7197 324.277 48.9613 316.692 48.9613C309.106 48.9613 302.9 51.7197 298.073 57.2365C293.245 62.5234 289.453 69.1895 286.694 77.2348C284.166 85.0502 282.442 93.5552 281.522 102.75C280.603 111.944 280.143 120.335 280.143 127.92C280.143 135.736 280.603 144.355 281.522 153.78C282.442 162.975 284.166 171.595 286.694 179.64C289.453 187.455 293.245 194.121 298.073 199.638C302.9 204.925 309.106 207.568 316.692 207.568C324.277 207.568 330.369 204.925 334.966 199.638C339.793 194.121 343.471 187.455 346 179.64C348.528 171.595 350.252 162.975 351.172 153.78C352.091 144.355 352.551 135.736 352.551 127.92Z" fill="white"/>
<rect width="47.4889" height="225.572" transform="matrix(0.707294 -0.706919 0.707294 0.706919 440.872 42.2009)" fill="white"/>
<path d="M768.178 33.6256L734.645 0L622.865 112.085L656.399 145.711L768.178 33.6256Z" fill="white"/>
<path d="M979.077 179.64C979.077 192.972 976.318 204.58 970.801 214.464C965.514 224.119 958.504 232.164 949.769 238.6C941.034 244.807 931.15 249.404 920.116 252.392C909.312 255.61 898.279 257.219 887.015 257.219C875.982 257.219 865.178 255.955 854.604 253.427C844.26 250.898 834.721 247.105 825.986 242.048C817.481 236.761 810.011 230.095 803.574 222.05C797.138 213.775 792.311 203.891 789.093 192.397L842.881 178.261C845.18 186.306 849.892 193.432 857.018 199.638C864.144 205.615 873.224 208.603 884.257 208.603C888.395 208.603 892.532 208.028 896.67 206.879C901.037 205.73 904.83 204.006 908.048 201.707C911.496 199.178 914.255 195.96 916.323 192.053C918.622 188.145 919.771 183.318 919.771 177.571C919.771 171.365 918.277 166.193 915.289 162.055C912.531 157.918 908.738 154.699 903.911 152.401C899.313 149.872 894.026 148.148 888.05 147.229C882.073 146.079 876.097 145.505 870.12 145.505H854.604V103.095H871.5C877.016 103.095 882.303 102.75 887.36 102.06C892.417 101.141 896.9 99.6467 900.807 97.5779C904.945 95.2792 908.163 92.291 910.462 88.6131C912.99 84.9353 914.255 80.1081 914.255 74.1316C914.255 65.3967 911.151 58.7306 904.945 54.1333C898.739 49.536 891.613 47.2373 883.567 47.2373C875.292 47.2373 868.052 49.7659 861.845 54.8229C855.869 59.6501 851.961 66.2012 850.122 74.4764L796.334 62.0637C799.322 51.7197 803.804 42.755 809.781 35.1694C815.757 27.354 822.768 20.9178 830.813 15.8607C839.089 10.5738 848.053 6.6661 857.708 4.13759C867.362 1.3792 877.246 0 887.36 0C898.164 0 908.623 1.3792 918.737 4.13759C929.081 6.89598 938.275 11.1485 946.321 16.8951C954.366 22.6417 960.802 29.8825 965.629 38.6174C970.686 47.1224 973.215 57.2365 973.215 68.9596C973.215 82.5217 969.307 94.015 961.492 103.439C953.906 112.634 944.137 118.84 932.184 122.059V123.093C939.08 124.702 945.401 127.345 951.148 131.023C956.895 134.471 961.837 138.724 965.974 143.781C970.112 148.608 973.33 154.125 975.629 160.331C977.927 166.308 979.077 172.744 979.077 179.64Z" fill="white"/>
<path d="M1200.95 127.92C1200.95 145.16 1199.22 161.595 1195.78 177.226C1192.33 192.857 1186.81 206.649 1179.23 218.602C1171.64 230.325 1161.76 239.75 1149.57 246.875C1137.62 253.771 1123.02 257.219 1105.78 257.219C1088.54 257.219 1073.83 253.771 1061.65 246.875C1049.47 239.75 1039.47 230.325 1031.65 218.602C1024.07 206.649 1018.55 192.857 1015.1 177.226C1011.65 161.595 1009.93 145.16 1009.93 127.92C1009.93 110.68 1011.65 94.3598 1015.1 78.9588C1018.55 63.3279 1024.07 49.7659 1031.65 38.2726C1039.47 26.5495 1049.47 17.2399 1061.65 10.344C1073.83 3.44798 1088.54 0 1105.78 0C1123.02 0 1137.62 3.44798 1149.57 10.344C1161.76 17.2399 1171.64 26.5495 1179.23 38.2726C1186.81 49.7659 1192.33 63.3279 1195.78 78.9588C1199.22 94.3598 1200.95 110.68 1200.95 127.92ZM1141.64 127.92C1141.64 120.335 1141.18 111.944 1140.26 102.75C1139.34 93.5552 1137.62 85.0502 1135.09 77.2348C1132.56 69.1895 1128.89 62.5234 1124.06 57.2365C1119.46 51.7197 1113.37 48.9613 1105.78 48.9613C1098.2 48.9613 1091.99 51.7197 1087.17 57.2365C1082.34 62.5234 1078.55 69.1895 1075.79 77.2348C1073.26 85.0502 1071.53 93.5552 1070.62 102.75C1069.7 111.944 1069.24 120.335 1069.24 127.92C1069.24 135.736 1069.7 144.355 1070.62 153.78C1071.53 162.975 1073.26 171.595 1075.79 179.64C1078.55 187.455 1082.34 194.121 1087.17 199.638C1091.99 204.925 1098.2 207.568 1105.78 207.568C1113.37 207.568 1119.46 204.925 1124.06 199.638C1128.89 194.121 1132.56 187.455 1135.09 179.64C1137.62 171.595 1139.34 162.975 1140.26 153.78C1141.18 144.355 1141.64 135.736 1141.64 127.92Z" fill="white"/>
</svg>
