<svg width="84" height="12" viewBox="0 0 84 12" fill="none" xmlns="http://www.w3.org/2000/svg">
<rect width="0.701063" height="3.41768" transform="matrix(-0.707107 0.707107 0.707107 0.707107 -1.0061 -0.166504)" fill="black"/>
<rect width="0.701063" height="2.24924" transform="matrix(-0.707107 -0.707107 -0.707107 0.707107 3.33179 0.329102)" fill="black"/>
<rect width="0.701063" height="3.41768" transform="matrix(-0.707107 0.707107 0.707107 0.707107 3.82739 -0.166504)" fill="black"/>
<rect width="0.701063" height="2.24924" transform="matrix(-0.707107 -0.707107 -0.707107 0.707107 8.16504 0.329102)" fill="black"/>
<rect width="0.701063" height="3.41768" transform="matrix(-0.707107 0.707107 0.707107 0.707107 8.66113 -0.166504)" fill="black"/>
<rect width="0.701063" height="2.24924" transform="matrix(-0.707107 -0.707107 -0.707107 0.707107 12.9988 0.329102)" fill="black"/>
<rect width="0.701063" height="3.41768" transform="matrix(-0.707107 0.707107 0.707107 0.707107 13.4944 -0.166504)" fill="black"/>
<rect width="0.701063" height="2.24924" transform="matrix(-0.707107 -0.707107 -0.707107 0.707107 17.8323 0.329102)" fill="black"/>
<rect width="0.701063" height="3.41768" transform="matrix(-0.707107 0.707107 0.707107 0.707107 18.3281 -0.166504)" fill="black"/>
<rect width="0.701063" height="2.24924" transform="matrix(-0.707107 -0.707107 -0.707107 0.707107 22.666 0.329102)" fill="black"/>
<rect width="0.701063" height="3.41768" transform="matrix(-0.707107 0.707107 0.707107 0.707107 23.1616 -0.166504)" fill="black"/>
<rect width="0.701063" height="2.24924" transform="matrix(-0.707107 -0.707107 -0.707107 0.707107 27.4993 0.329102)" fill="black"/>
<rect width="0.701063" height="3.41768" transform="matrix(-0.707107 0.707107 0.707107 0.707107 27.9951 -0.166504)" fill="black"/>
<rect width="0.701063" height="2.24924" transform="matrix(-0.707107 -0.707107 -0.707107 0.707107 32.3328 0.329102)" fill="black"/>
<rect width="0.701063" height="3.41768" transform="matrix(-0.707107 0.707107 0.707107 0.707107 32.8286 -0.166504)" fill="black"/>
<rect width="0.701063" height="2.24924" transform="matrix(-0.707107 -0.707107 -0.707107 0.707107 37.1663 0.329102)" fill="black"/>
<rect width="0.701063" height="3.41768" transform="matrix(-0.707107 0.707107 0.707107 0.707107 37.6624 -0.166504)" fill="black"/>
<rect width="0.701063" height="2.24924" transform="matrix(-0.707107 -0.707107 -0.707107 0.707107 42 0.329102)" fill="black"/>
<rect width="0.701063" height="3.41768" transform="matrix(-0.707107 0.707107 0.707107 0.707107 42.4956 -0.166504)" fill="black"/>
<rect width="0.701063" height="2.24924" transform="matrix(-0.707107 -0.707107 -0.707107 0.707107 46.8333 0.329102)" fill="black"/>
<rect width="0.701063" height="3.41768" transform="matrix(-0.707107 0.707107 0.707107 0.707107 47.3291 -0.166504)" fill="black"/>
<rect width="0.701063" height="2.24924" transform="matrix(-0.707107 -0.707107 -0.707107 0.707107 51.6667 0.329102)" fill="black"/>
<rect width="0.701063" height="3.41768" transform="matrix(-0.707107 0.707107 0.707107 0.707107 52.1628 -0.166504)" fill="black"/>
<rect width="0.701063" height="2.24924" transform="matrix(-0.707107 -0.707107 -0.707107 0.707107 56.5007 0.329102)" fill="black"/>
<rect width="0.701063" height="3.41768" transform="matrix(-0.707107 0.707107 0.707107 0.707107 56.9963 -0.166504)" fill="black"/>
<rect width="0.701063" height="2.24924" transform="matrix(-0.707107 -0.707107 -0.707107 0.707107 61.334 0.329102)" fill="black"/>
<rect width="0.701063" height="3.41768" transform="matrix(-0.707107 0.707107 0.707107 0.707107 61.8298 -0.166504)" fill="black"/>
<rect width="0.701063" height="2.24924" transform="matrix(-0.707107 -0.707107 -0.707107 0.707107 66.1675 0.329102)" fill="black"/>
<rect width="0.701063" height="3.41768" transform="matrix(-0.707107 0.707107 0.707107 0.707107 66.6636 -0.166504)" fill="black"/>
<rect width="0.701063" height="2.24924" transform="matrix(-0.707107 -0.707107 -0.707107 0.707107 71.0012 0.329102)" fill="black"/>
<rect width="0.701063" height="3.41768" transform="matrix(-0.707107 0.707107 0.707107 0.707107 71.4971 -0.166504)" fill="black"/>
<rect width="0.701063" height="2.24924" transform="matrix(-0.707107 -0.707107 -0.707107 0.707107 75.8347 0.329102)" fill="black"/>
<rect width="0.701063" height="3.41768" transform="matrix(-0.707107 0.707107 0.707107 0.707107 76.3306 -0.166504)" fill="black"/>
<rect width="0.701063" height="2.24924" transform="matrix(-0.707107 -0.707107 -0.707107 0.707107 80.6682 0.329102)" fill="black"/>
<rect width="0.701063" height="3.41768" transform="matrix(-0.707107 0.707107 0.707107 0.707107 81.1641 -0.166504)" fill="black"/>
<rect width="0.701063" height="2.24924" transform="matrix(-0.707107 -0.707107 -0.707107 0.707107 85.5017 0.329102)" fill="black"/>
<rect width="0.701063" height="3.41768" transform="matrix(-0.707107 0.707107 0.707107 0.707107 -1.0061 4.6665)" fill="black"/>
<rect width="0.701063" height="2.24924" transform="matrix(-0.707107 -0.707107 -0.707107 0.707107 3.33179 5.16211)" fill="black"/>
<rect width="0.701063" height="3.41768" transform="matrix(-0.707107 0.707107 0.707107 0.707107 3.82739 4.6665)" fill="black"/>
<rect width="0.701063" height="2.24924" transform="matrix(-0.707107 -0.707107 -0.707107 0.707107 8.16504 5.16211)" fill="black"/>
<rect width="0.701063" height="3.41768" transform="matrix(-0.707107 0.707107 0.707107 0.707107 8.66113 4.6665)" fill="black"/>
<rect width="0.701063" height="2.24924" transform="matrix(-0.707107 -0.707107 -0.707107 0.707107 12.9988 5.16211)" fill="black"/>
<rect width="0.701063" height="3.41768" transform="matrix(-0.707107 0.707107 0.707107 0.707107 13.4944 4.6665)" fill="black"/>
<rect width="0.701063" height="2.24924" transform="matrix(-0.707107 -0.707107 -0.707107 0.707107 17.8323 5.16211)" fill="black"/>
<rect width="0.701063" height="3.41768" transform="matrix(-0.707107 0.707107 0.707107 0.707107 18.3281 4.6665)" fill="black"/>
<rect width="0.701063" height="2.24924" transform="matrix(-0.707107 -0.707107 -0.707107 0.707107 22.666 5.16211)" fill="black"/>
<rect width="0.701063" height="3.41768" transform="matrix(-0.707107 0.707107 0.707107 0.707107 23.1616 4.6665)" fill="black"/>
<rect width="0.701063" height="2.24924" transform="matrix(-0.707107 -0.707107 -0.707107 0.707107 27.4993 5.16211)" fill="black"/>
<rect width="0.701063" height="3.41768" transform="matrix(-0.707107 0.707107 0.707107 0.707107 27.9951 4.6665)" fill="black"/>
<rect width="0.701063" height="2.24924" transform="matrix(-0.707107 -0.707107 -0.707107 0.707107 32.3328 5.16211)" fill="black"/>
<rect width="0.701063" height="3.41768" transform="matrix(-0.707107 0.707107 0.707107 0.707107 32.8286 4.6665)" fill="black"/>
<rect width="0.701063" height="2.24924" transform="matrix(-0.707107 -0.707107 -0.707107 0.707107 37.1663 5.16211)" fill="black"/>
<rect width="0.701063" height="3.41768" transform="matrix(-0.707107 0.707107 0.707107 0.707107 37.6624 4.6665)" fill="black"/>
<rect width="0.701063" height="2.24924" transform="matrix(-0.707107 -0.707107 -0.707107 0.707107 42 5.16211)" fill="black"/>
<rect width="0.701063" height="3.41768" transform="matrix(-0.707107 0.707107 0.707107 0.707107 42.4956 4.6665)" fill="black"/>
<rect width="0.701063" height="2.24924" transform="matrix(-0.707107 -0.707107 -0.707107 0.707107 46.8333 5.16211)" fill="black"/>
<rect width="0.701063" height="3.41768" transform="matrix(-0.707107 0.707107 0.707107 0.707107 47.3291 4.6665)" fill="black"/>
<rect width="0.701063" height="2.24924" transform="matrix(-0.707107 -0.707107 -0.707107 0.707107 51.6667 5.16211)" fill="black"/>
<rect width="0.701063" height="3.41768" transform="matrix(-0.707107 0.707107 0.707107 0.707107 52.1628 4.6665)" fill="black"/>
<rect width="0.701063" height="2.24924" transform="matrix(-0.707107 -0.707107 -0.707107 0.707107 56.5007 5.16211)" fill="black"/>
<rect width="0.701063" height="3.41768" transform="matrix(-0.707107 0.707107 0.707107 0.707107 56.9963 4.6665)" fill="black"/>
<rect width="0.701063" height="2.24924" transform="matrix(-0.707107 -0.707107 -0.707107 0.707107 61.334 5.16211)" fill="black"/>
<rect width="0.701063" height="3.41768" transform="matrix(-0.707107 0.707107 0.707107 0.707107 61.8298 4.6665)" fill="black"/>
<rect width="0.701063" height="2.24924" transform="matrix(-0.707107 -0.707107 -0.707107 0.707107 66.1675 5.16211)" fill="black"/>
<rect width="0.701063" height="3.41768" transform="matrix(-0.707107 0.707107 0.707107 0.707107 66.6636 4.6665)" fill="black"/>
<rect width="0.701063" height="2.24924" transform="matrix(-0.707107 -0.707107 -0.707107 0.707107 71.0012 5.16211)" fill="black"/>
<rect width="0.701063" height="3.41768" transform="matrix(-0.707107 0.707107 0.707107 0.707107 71.4971 4.6665)" fill="black"/>
<rect width="0.701063" height="2.24924" transform="matrix(-0.707107 -0.707107 -0.707107 0.707107 75.8347 5.16211)" fill="black"/>
<rect width="0.701063" height="3.41768" transform="matrix(-0.707107 0.707107 0.707107 0.707107 76.3306 4.6665)" fill="black"/>
<rect width="0.701063" height="2.24924" transform="matrix(-0.707107 -0.707107 -0.707107 0.707107 80.6682 5.16211)" fill="black"/>
<rect width="0.701063" height="3.41768" transform="matrix(-0.707107 0.707107 0.707107 0.707107 81.1641 4.6665)" fill="black"/>
<rect width="0.701063" height="2.24924" transform="matrix(-0.707107 -0.707107 -0.707107 0.707107 85.5017 5.16211)" fill="black"/>
<rect width="0.701063" height="3.41768" transform="matrix(-0.707107 0.707107 0.707107 0.707107 -1.0061 9.5)" fill="black"/>
<rect width="0.701063" height="2.24924" transform="matrix(-0.707107 -0.707107 -0.707107 0.707107 3.33179 9.99561)" fill="black"/>
<rect width="0.701063" height="3.41768" transform="matrix(-0.707107 0.707107 0.707107 0.707107 3.82739 9.5)" fill="black"/>
<rect width="0.701063" height="2.24924" transform="matrix(-0.707107 -0.707107 -0.707107 0.707107 8.16504 9.99561)" fill="black"/>
<rect width="0.701063" height="3.41768" transform="matrix(-0.707107 0.707107 0.707107 0.707107 8.66113 9.5)" fill="black"/>
<rect width="0.701063" height="2.24924" transform="matrix(-0.707107 -0.707107 -0.707107 0.707107 12.9988 9.99561)" fill="black"/>
<rect width="0.701063" height="3.41768" transform="matrix(-0.707107 0.707107 0.707107 0.707107 13.4944 9.5)" fill="black"/>
<rect width="0.701063" height="2.24924" transform="matrix(-0.707107 -0.707107 -0.707107 0.707107 17.8323 9.99561)" fill="black"/>
<rect width="0.701063" height="3.41768" transform="matrix(-0.707107 0.707107 0.707107 0.707107 18.3281 9.5)" fill="black"/>
<rect width="0.701063" height="2.24924" transform="matrix(-0.707107 -0.707107 -0.707107 0.707107 22.666 9.99561)" fill="black"/>
<rect width="0.701063" height="3.41768" transform="matrix(-0.707107 0.707107 0.707107 0.707107 23.1616 9.5)" fill="black"/>
<rect width="0.701063" height="2.24924" transform="matrix(-0.707107 -0.707107 -0.707107 0.707107 27.4993 9.99561)" fill="black"/>
<rect width="0.701063" height="3.41768" transform="matrix(-0.707107 0.707107 0.707107 0.707107 27.9951 9.5)" fill="black"/>
<rect width="0.701063" height="2.24924" transform="matrix(-0.707107 -0.707107 -0.707107 0.707107 32.3328 9.99561)" fill="black"/>
<rect width="0.701063" height="3.41768" transform="matrix(-0.707107 0.707107 0.707107 0.707107 32.8286 9.5)" fill="black"/>
<rect width="0.701063" height="2.24924" transform="matrix(-0.707107 -0.707107 -0.707107 0.707107 37.1663 9.99561)" fill="black"/>
<rect width="0.701063" height="3.41768" transform="matrix(-0.707107 0.707107 0.707107 0.707107 37.6624 9.5)" fill="black"/>
<rect width="0.701063" height="2.24924" transform="matrix(-0.707107 -0.707107 -0.707107 0.707107 42 9.99561)" fill="black"/>
<rect width="0.701063" height="3.41768" transform="matrix(-0.707107 0.707107 0.707107 0.707107 42.4956 9.5)" fill="black"/>
<rect width="0.701063" height="2.24924" transform="matrix(-0.707107 -0.707107 -0.707107 0.707107 46.8333 9.99561)" fill="black"/>
<rect width="0.701063" height="3.41768" transform="matrix(-0.707107 0.707107 0.707107 0.707107 47.3291 9.5)" fill="black"/>
<rect width="0.701063" height="2.24924" transform="matrix(-0.707107 -0.707107 -0.707107 0.707107 51.6667 9.99561)" fill="black"/>
<rect width="0.701063" height="3.41768" transform="matrix(-0.707107 0.707107 0.707107 0.707107 52.1628 9.5)" fill="black"/>
<rect width="0.701063" height="2.24924" transform="matrix(-0.707107 -0.707107 -0.707107 0.707107 56.5007 9.99561)" fill="black"/>
<rect width="0.701063" height="3.41768" transform="matrix(-0.707107 0.707107 0.707107 0.707107 56.9963 9.5)" fill="black"/>
<rect width="0.701063" height="2.24924" transform="matrix(-0.707107 -0.707107 -0.707107 0.707107 61.334 9.99561)" fill="black"/>
<rect width="0.701063" height="3.41768" transform="matrix(-0.707107 0.707107 0.707107 0.707107 61.8298 9.5)" fill="black"/>
<rect width="0.701063" height="2.24924" transform="matrix(-0.707107 -0.707107 -0.707107 0.707107 66.1675 9.99561)" fill="black"/>
<rect width="0.701063" height="3.41768" transform="matrix(-0.707107 0.707107 0.707107 0.707107 66.6636 9.5)" fill="black"/>
<rect width="0.701063" height="2.24924" transform="matrix(-0.707107 -0.707107 -0.707107 0.707107 71.0012 9.99561)" fill="black"/>
<rect width="0.701063" height="3.41768" transform="matrix(-0.707107 0.707107 0.707107 0.707107 71.4971 9.5)" fill="black"/>
<rect width="0.701063" height="2.24924" transform="matrix(-0.707107 -0.707107 -0.707107 0.707107 75.8347 9.99561)" fill="black"/>
<rect width="0.701063" height="3.41768" transform="matrix(-0.707107 0.707107 0.707107 0.707107 76.3306 9.5)" fill="black"/>
<rect width="0.701063" height="2.24924" transform="matrix(-0.707107 -0.707107 -0.707107 0.707107 80.6682 9.99561)" fill="black"/>
<rect width="0.701063" height="3.41768" transform="matrix(-0.707107 0.707107 0.707107 0.707107 81.1641 9.5)" fill="black"/>
<rect width="0.701063" height="2.24924" transform="matrix(-0.707107 -0.707107 -0.707107 0.707107 85.5017 9.99561)" fill="black"/>
</svg>
