<svg width="36" height="12" viewBox="0 0 36 12" fill="none" xmlns="http://www.w3.org/2000/svg">
<g clip-path="url(#clip0_1303_92897)">
<mask id="mask0_1303_92897" style="mask-type:alpha" maskUnits="userSpaceOnUse" x="-9" y="-18" width="53" height="48">
<rect width="0.754246" height="3.67695" transform="matrix(-0.707107 0.707107 0.707107 0.707107 18.533 -1.80029)" fill="black"/>
<rect width="0.754246" height="2.41987" transform="matrix(-0.707107 0.707107 0.707107 0.707107 21.4888 1.15527)" fill="black"/>
<rect width="0.754246" height="2.41987" transform="matrix(-0.707107 -0.707107 -0.707107 0.707107 23.1997 -1.26709)" fill="black"/>
<rect width="0.754246" height="2.41987" transform="matrix(-0.707107 -0.707107 -0.707107 0.707107 20.2444 1.68848)" fill="black"/>
<rect width="0.754246" height="3.67695" transform="matrix(-0.707107 0.707107 0.707107 0.707107 13.333 -1.80029)" fill="black"/>
<rect width="0.754246" height="2.41987" transform="matrix(-0.707107 0.707107 0.707107 0.707107 16.2888 1.15527)" fill="black"/>
<rect width="0.754246" height="2.41987" transform="matrix(-0.707107 -0.707107 -0.707107 0.707107 17.9998 -1.26709)" fill="black"/>
<rect width="0.754246" height="2.41987" transform="matrix(-0.707107 -0.707107 -0.707107 0.707107 15.0444 1.68848)" fill="black"/>
<rect width="0.754246" height="3.67695" transform="matrix(-0.707107 0.707107 0.707107 0.707107 8.13257 -1.80029)" fill="black"/>
<rect width="0.754246" height="2.41987" transform="matrix(-0.707107 0.707107 0.707107 0.707107 11.0886 1.15527)" fill="black"/>
<rect width="0.754246" height="2.41987" transform="matrix(-0.707107 -0.707107 -0.707107 0.707107 12.7993 -1.26709)" fill="black"/>
<rect width="0.754246" height="2.41987" transform="matrix(-0.707107 -0.707107 -0.707107 0.707107 9.84399 1.68848)" fill="black"/>
<rect width="0.754246" height="3.67695" transform="matrix(-0.707107 0.707107 0.707107 0.707107 2.93286 -1.80029)" fill="black"/>
<rect width="0.754246" height="2.41987" transform="matrix(-0.707107 0.707107 0.707107 0.707107 5.88867 1.15527)" fill="black"/>
<rect width="0.754246" height="2.41987" transform="matrix(-0.707107 -0.707107 -0.707107 0.707107 7.59985 -1.26709)" fill="black"/>
<rect width="0.754246" height="2.41987" transform="matrix(-0.707107 -0.707107 -0.707107 0.707107 4.64429 1.68848)" fill="black"/>
<rect width="0.754246" height="3.67695" transform="matrix(-0.707107 0.707107 0.707107 0.707107 -2.26709 -1.80029)" fill="black"/>
<rect width="0.754246" height="2.41987" transform="matrix(-0.707107 0.707107 0.707107 0.707107 0.688721 1.15527)" fill="black"/>
<rect width="0.754246" height="2.41987" transform="matrix(-0.707107 -0.707107 -0.707107 0.707107 2.39966 -1.26709)" fill="black"/>
<rect width="0.754246" height="3.67695" transform="matrix(-0.707107 0.707107 0.707107 0.707107 18.533 3.39941)" fill="black"/>
<rect width="0.754246" height="2.41987" transform="matrix(-0.707107 0.707107 0.707107 0.707107 21.4888 6.35498)" fill="black"/>
<rect width="0.754246" height="2.41987" transform="matrix(-0.707107 -0.707107 -0.707107 0.707107 23.1997 3.93262)" fill="black"/>
<rect width="0.754246" height="2.41987" transform="matrix(-0.707107 -0.707107 -0.707107 0.707107 20.2444 6.88818)" fill="black"/>
<rect width="0.754246" height="3.67695" transform="matrix(-0.707107 0.707107 0.707107 0.707107 13.333 3.39941)" fill="black"/>
<rect width="0.754246" height="2.41987" transform="matrix(-0.707107 0.707107 0.707107 0.707107 16.2888 6.35498)" fill="black"/>
<rect width="0.754246" height="2.41987" transform="matrix(-0.707107 -0.707107 -0.707107 0.707107 17.9998 3.93262)" fill="black"/>
<rect width="0.754246" height="2.41987" transform="matrix(-0.707107 -0.707107 -0.707107 0.707107 15.0444 6.88818)" fill="black"/>
<rect width="0.754246" height="3.67695" transform="matrix(-0.707107 0.707107 0.707107 0.707107 8.13257 3.39941)" fill="black"/>
<rect width="0.754246" height="2.41987" transform="matrix(-0.707107 0.707107 0.707107 0.707107 11.0886 6.35498)" fill="black"/>
<rect width="0.754246" height="2.41987" transform="matrix(-0.707107 -0.707107 -0.707107 0.707107 12.7993 3.93262)" fill="black"/>
<rect width="0.754246" height="2.41987" transform="matrix(-0.707107 -0.707107 -0.707107 0.707107 9.84399 6.88818)" fill="black"/>
<rect width="0.754246" height="3.67695" transform="matrix(-0.707107 0.707107 0.707107 0.707107 2.93286 3.39941)" fill="black"/>
<rect width="0.754246" height="2.41987" transform="matrix(-0.707107 0.707107 0.707107 0.707107 5.88867 6.35498)" fill="black"/>
<rect width="0.754246" height="2.41987" transform="matrix(-0.707107 -0.707107 -0.707107 0.707107 7.59985 3.93262)" fill="black"/>
<rect width="0.754246" height="2.41987" transform="matrix(-0.707107 -0.707107 -0.707107 0.707107 4.64429 6.88818)" fill="black"/>
<rect width="0.754246" height="3.67695" transform="matrix(-0.707107 0.707107 0.707107 0.707107 -2.26709 3.39941)" fill="black"/>
<rect width="0.754246" height="2.41987" transform="matrix(-0.707107 0.707107 0.707107 0.707107 0.688721 6.35498)" fill="black"/>
<rect width="0.754246" height="2.41987" transform="matrix(-0.707107 -0.707107 -0.707107 0.707107 2.39966 3.93262)" fill="black"/>
<rect width="0.754246" height="3.67695" transform="matrix(-0.707107 0.707107 0.707107 0.707107 18.533 8.59961)" fill="black"/>
<rect width="0.754246" height="2.41987" transform="matrix(-0.707107 0.707107 0.707107 0.707107 21.4888 11.5552)" fill="black"/>
<rect width="0.754246" height="2.41987" transform="matrix(-0.707107 -0.707107 -0.707107 0.707107 23.1997 9.13281)" fill="black"/>
<rect width="0.754246" height="2.41987" transform="matrix(-0.707107 -0.707107 -0.707107 0.707107 20.2444 12.0884)" fill="black"/>
<rect width="0.754246" height="3.67695" transform="matrix(-0.707107 0.707107 0.707107 0.707107 13.333 8.59961)" fill="black"/>
<rect width="0.754246" height="2.41987" transform="matrix(-0.707107 0.707107 0.707107 0.707107 16.2888 11.5552)" fill="black"/>
<rect width="0.754246" height="2.41987" transform="matrix(-0.707107 -0.707107 -0.707107 0.707107 17.9998 9.13281)" fill="black"/>
<rect width="0.754246" height="2.41987" transform="matrix(-0.707107 -0.707107 -0.707107 0.707107 15.0444 12.0884)" fill="black"/>
<rect width="0.754246" height="3.67695" transform="matrix(-0.707107 0.707107 0.707107 0.707107 8.13257 8.59961)" fill="black"/>
<rect width="0.754246" height="2.41987" transform="matrix(-0.707107 0.707107 0.707107 0.707107 11.0886 11.5552)" fill="black"/>
<rect width="0.754246" height="2.41987" transform="matrix(-0.707107 -0.707107 -0.707107 0.707107 12.7993 9.13281)" fill="black"/>
<rect width="0.754246" height="2.41987" transform="matrix(-0.707107 -0.707107 -0.707107 0.707107 9.84399 12.0884)" fill="black"/>
<rect width="0.754246" height="3.67695" transform="matrix(-0.707107 0.707107 0.707107 0.707107 2.93286 8.59961)" fill="black"/>
<rect width="0.754246" height="2.41987" transform="matrix(-0.707107 0.707107 0.707107 0.707107 5.88867 11.5552)" fill="black"/>
<rect width="0.754246" height="2.41987" transform="matrix(-0.707107 -0.707107 -0.707107 0.707107 7.59985 9.13281)" fill="black"/>
<rect width="0.754246" height="2.41987" transform="matrix(-0.707107 -0.707107 -0.707107 0.707107 4.64429 12.0884)" fill="black"/>
<rect width="0.754246" height="3.67695" transform="matrix(-0.707107 0.707107 0.707107 0.707107 -2.26709 8.59961)" fill="black"/>
<rect width="0.754246" height="2.41987" transform="matrix(-0.707107 0.707107 0.707107 0.707107 0.688721 11.5552)" fill="black"/>
<rect width="0.754246" height="2.41987" transform="matrix(-0.707107 -0.707107 -0.707107 0.707107 2.39966 9.13281)" fill="black"/>
<rect width="0.754246" height="3.67695" transform="matrix(-0.707107 0.707107 0.707107 0.707107 23.7329 -1.80029)" fill="black"/>
<rect width="0.754246" height="2.41987" transform="matrix(-0.707107 0.707107 0.707107 0.707107 26.6887 1.15527)" fill="black"/>
<rect width="0.754246" height="2.41987" transform="matrix(-0.707107 -0.707107 -0.707107 0.707107 28.3997 -1.26709)" fill="black"/>
<rect width="0.754246" height="2.41987" transform="matrix(-0.707107 -0.707107 -0.707107 0.707107 25.4441 1.68848)" fill="black"/>
<rect width="0.754246" height="3.67695" transform="matrix(-0.707107 0.707107 0.707107 0.707107 23.7329 3.39941)" fill="black"/>
<rect width="0.754246" height="2.41987" transform="matrix(-0.707107 0.707107 0.707107 0.707107 26.6887 6.35498)" fill="black"/>
<rect width="0.754246" height="2.41987" transform="matrix(-0.707107 -0.707107 -0.707107 0.707107 28.3997 3.93262)" fill="black"/>
<rect width="0.754246" height="2.41987" transform="matrix(-0.707107 -0.707107 -0.707107 0.707107 25.4441 6.88818)" fill="black"/>
<rect width="0.754246" height="3.67695" transform="matrix(-0.707107 0.707107 0.707107 0.707107 23.7329 8.59961)" fill="black"/>
<rect width="0.754246" height="2.41987" transform="matrix(-0.707107 0.707107 0.707107 0.707107 26.6887 11.5552)" fill="black"/>
<rect width="0.754246" height="2.41987" transform="matrix(-0.707107 -0.707107 -0.707107 0.707107 28.3997 9.13281)" fill="black"/>
<rect width="0.754246" height="2.41987" transform="matrix(-0.707107 -0.707107 -0.707107 0.707107 25.4441 12.0884)" fill="black"/>
<rect width="0.754246" height="3.67695" transform="matrix(-0.707107 0.707107 0.707107 0.707107 28.9331 -1.80029)" fill="black"/>
<rect width="0.754246" height="2.41987" transform="matrix(-0.707107 0.707107 0.707107 0.707107 31.8889 1.15527)" fill="black"/>
<rect width="0.754246" height="2.41987" transform="matrix(-0.707107 -0.707107 -0.707107 0.707107 33.6001 -1.26709)" fill="black"/>
<rect width="0.754246" height="2.41987" transform="matrix(-0.707107 -0.707107 -0.707107 0.707107 30.6445 1.68848)" fill="black"/>
<rect width="0.754246" height="3.67695" transform="matrix(-0.707107 0.707107 0.707107 0.707107 28.9331 3.39941)" fill="black"/>
<rect width="0.754246" height="2.41987" transform="matrix(-0.707107 0.707107 0.707107 0.707107 31.8889 6.35498)" fill="black"/>
<rect width="0.754246" height="2.41987" transform="matrix(-0.707107 -0.707107 -0.707107 0.707107 33.6001 3.93262)" fill="black"/>
<rect width="0.754246" height="2.41987" transform="matrix(-0.707107 -0.707107 -0.707107 0.707107 30.6445 6.88818)" fill="black"/>
<rect width="0.754246" height="3.67695" transform="matrix(-0.707107 0.707107 0.707107 0.707107 28.9331 8.59961)" fill="black"/>
<rect width="0.754246" height="2.41987" transform="matrix(-0.707107 0.707107 0.707107 0.707107 31.8889 11.5552)" fill="black"/>
<rect width="0.754246" height="2.41987" transform="matrix(-0.707107 -0.707107 -0.707107 0.707107 33.6001 9.13281)" fill="black"/>
<rect width="0.754246" height="2.41987" transform="matrix(-0.707107 -0.707107 -0.707107 0.707107 30.6445 12.0884)" fill="black"/>
<rect width="0.754246" height="3.67695" transform="matrix(-0.707107 0.707107 0.707107 0.707107 34.1328 -1.80029)" fill="black"/>
<rect width="0.754246" height="2.41987" transform="matrix(-0.707107 -0.707107 -0.707107 0.707107 35.8442 1.68848)" fill="black"/>
<rect width="0.754246" height="3.67695" transform="matrix(-0.707107 0.707107 0.707107 0.707107 34.1328 3.39941)" fill="black"/>
<rect width="0.754246" height="2.41987" transform="matrix(-0.707107 -0.707107 -0.707107 0.707107 35.8442 6.88818)" fill="black"/>
<rect width="0.754246" height="3.67695" transform="matrix(-0.707107 0.707107 0.707107 0.707107 34.1328 8.59961)" fill="black"/>
<rect width="0.754246" height="2.41987" transform="matrix(-0.707107 -0.707107 -0.707107 0.707107 35.8442 12.0884)" fill="black"/>
</mask>
<g mask="url(#mask0_1303_92897)">
<rect width="36" height="12" fill="black"/>
</g>
</g>
<defs>
<clipPath id="clip0_1303_92897">
<rect width="36" height="12" fill="white"/>
</clipPath>
</defs>
</svg>
