<svg width="84" height="14" viewBox="0 0 84 14" fill="none" xmlns="http://www.w3.org/2000/svg">
<rect x="0.5" y="0.5" width="83" height="13" stroke="black"/>
<mask id="mask0_1303_94126" style="mask-type:alpha" maskUnits="userSpaceOnUse" x="0" y="1" width="84" height="12">
<rect y="1" width="84" height="12" fill="#FFDD88"/>
</mask>
<g mask="url(#mask0_1303_94126)">
<rect width="0.949402" height="3.046" transform="matrix(-0.707107 -0.707107 -0.707107 0.707107 4.09106 0.853027)" fill="black"/>
<rect width="0.949402" height="3.046" transform="matrix(-0.707107 -0.707107 -0.707107 0.707107 0.370605 4.57324)" fill="black"/>
<rect width="0.949402" height="3.046" transform="matrix(-0.707107 -0.707107 -0.707107 0.707107 4.09106 7.39844)" fill="black"/>
<rect width="0.949402" height="3.046" transform="matrix(-0.707107 -0.707107 -0.707107 0.707107 0.370605 11.1187)" fill="black"/>
<rect width="0.949402" height="3.046" transform="matrix(-0.707107 -0.707107 -0.707107 0.707107 10.6362 0.853027)" fill="black"/>
<rect width="0.949402" height="3.046" transform="matrix(-0.707107 -0.707107 -0.707107 0.707107 6.91602 4.57324)" fill="black"/>
<rect width="0.949402" height="3.046" transform="matrix(-0.707107 -0.707107 -0.707107 0.707107 10.6362 7.39844)" fill="black"/>
<rect width="0.949402" height="3.046" transform="matrix(-0.707107 -0.707107 -0.707107 0.707107 6.91602 11.1187)" fill="black"/>
<rect width="0.949402" height="3.046" transform="matrix(-0.707107 -0.707107 -0.707107 0.707107 17.1819 0.853027)" fill="black"/>
<rect width="0.949402" height="3.046" transform="matrix(-0.707107 -0.707107 -0.707107 0.707107 13.4617 4.57324)" fill="black"/>
<rect width="0.949402" height="3.046" transform="matrix(-0.707107 -0.707107 -0.707107 0.707107 17.1819 7.39844)" fill="black"/>
<rect width="0.949402" height="3.046" transform="matrix(-0.707107 -0.707107 -0.707107 0.707107 13.4617 11.1187)" fill="black"/>
<rect width="0.949402" height="3.046" transform="matrix(-0.707107 -0.707107 -0.707107 0.707107 23.7273 0.853027)" fill="black"/>
<rect width="0.949402" height="3.046" transform="matrix(-0.707107 -0.707107 -0.707107 0.707107 20.0071 4.57324)" fill="black"/>
<rect width="0.949402" height="3.046" transform="matrix(-0.707107 -0.707107 -0.707107 0.707107 23.7273 7.39844)" fill="black"/>
<rect width="0.949402" height="3.046" transform="matrix(-0.707107 -0.707107 -0.707107 0.707107 20.0071 11.1187)" fill="black"/>
<rect width="0.949402" height="3.046" transform="matrix(-0.707107 -0.707107 -0.707107 0.707107 30.2727 0.853027)" fill="black"/>
<rect width="0.949402" height="3.046" transform="matrix(-0.707107 -0.707107 -0.707107 0.707107 26.5527 4.57324)" fill="black"/>
<rect width="0.949402" height="3.046" transform="matrix(-0.707107 -0.707107 -0.707107 0.707107 30.2727 7.39844)" fill="black"/>
<rect width="0.949402" height="3.046" transform="matrix(-0.707107 -0.707107 -0.707107 0.707107 26.5527 11.1187)" fill="black"/>
<rect width="0.949402" height="3.046" transform="matrix(-0.707107 -0.707107 -0.707107 0.707107 36.8184 0.853027)" fill="black"/>
<rect width="0.949402" height="3.046" transform="matrix(-0.707107 -0.707107 -0.707107 0.707107 33.0981 4.57324)" fill="black"/>
<rect width="0.949402" height="3.046" transform="matrix(-0.707107 -0.707107 -0.707107 0.707107 36.8184 7.39844)" fill="black"/>
<rect width="0.949402" height="3.046" transform="matrix(-0.707107 -0.707107 -0.707107 0.707107 33.0981 11.1187)" fill="black"/>
<rect width="0.949402" height="3.046" transform="matrix(-0.707107 -0.707107 -0.707107 0.707107 43.3635 0.853027)" fill="black"/>
<rect width="0.949402" height="3.046" transform="matrix(-0.707107 -0.707107 -0.707107 0.707107 39.6431 4.57324)" fill="black"/>
<rect width="0.949402" height="3.046" transform="matrix(-0.707107 -0.707107 -0.707107 0.707107 43.3635 7.39844)" fill="black"/>
<rect width="0.949402" height="3.046" transform="matrix(-0.707107 -0.707107 -0.707107 0.707107 39.6431 11.1187)" fill="black"/>
<rect width="0.949402" height="3.046" transform="matrix(-0.707107 -0.707107 -0.707107 0.707107 49.9089 0.853027)" fill="black"/>
<rect width="0.949402" height="3.046" transform="matrix(-0.707107 -0.707107 -0.707107 0.707107 46.1887 4.57324)" fill="black"/>
<rect width="0.949402" height="3.046" transform="matrix(-0.707107 -0.707107 -0.707107 0.707107 49.9089 7.39844)" fill="black"/>
<rect width="0.949402" height="3.046" transform="matrix(-0.707107 -0.707107 -0.707107 0.707107 46.1887 11.1187)" fill="black"/>
<rect width="0.949402" height="3.046" transform="matrix(-0.707107 -0.707107 -0.707107 0.707107 56.4548 0.853027)" fill="black"/>
<rect width="0.949402" height="3.046" transform="matrix(-0.707107 -0.707107 -0.707107 0.707107 52.7346 4.57324)" fill="black"/>
<rect width="0.949402" height="3.046" transform="matrix(-0.707107 -0.707107 -0.707107 0.707107 56.4548 7.39844)" fill="black"/>
<rect width="0.949402" height="3.046" transform="matrix(-0.707107 -0.707107 -0.707107 0.707107 52.7346 11.1187)" fill="black"/>
<rect width="0.949402" height="3.046" transform="matrix(-0.707107 -0.707107 -0.707107 0.707107 63 0.853027)" fill="black"/>
<rect width="0.949402" height="3.046" transform="matrix(-0.707107 -0.707107 -0.707107 0.707107 59.2798 4.57324)" fill="black"/>
<rect width="0.949402" height="3.046" transform="matrix(-0.707107 -0.707107 -0.707107 0.707107 69.5454 0.853027)" fill="black"/>
<rect width="0.949402" height="3.046" transform="matrix(-0.707107 -0.707107 -0.707107 0.707107 65.8252 4.57324)" fill="black"/>
<rect width="0.949402" height="3.046" transform="matrix(-0.707107 -0.707107 -0.707107 0.707107 76.0908 0.853027)" fill="black"/>
<rect width="0.949402" height="3.046" transform="matrix(-0.707107 -0.707107 -0.707107 0.707107 72.3706 4.57324)" fill="black"/>
<rect width="0.949402" height="3.046" transform="matrix(-0.707107 -0.707107 -0.707107 0.707107 82.6362 0.853027)" fill="black"/>
<rect width="0.949402" height="3.046" transform="matrix(-0.707107 -0.707107 -0.707107 0.707107 78.916 4.57324)" fill="black"/>
<rect width="0.949402" height="3.046" transform="matrix(-0.707107 -0.707107 -0.707107 0.707107 85.4614 4.57324)" fill="black"/>
<rect width="0.949402" height="3.046" transform="matrix(-0.707107 -0.707107 -0.707107 0.707107 63 7.39844)" fill="black"/>
<rect width="0.949402" height="3.046" transform="matrix(-0.707107 -0.707107 -0.707107 0.707107 59.2798 11.1187)" fill="black"/>
<rect width="0.949402" height="3.046" transform="matrix(-0.707107 -0.707107 -0.707107 0.707107 69.5454 7.39844)" fill="black"/>
<rect width="0.949402" height="3.046" transform="matrix(-0.707107 -0.707107 -0.707107 0.707107 65.8252 11.1187)" fill="black"/>
<rect width="0.949402" height="3.046" transform="matrix(-0.707107 -0.707107 -0.707107 0.707107 76.0908 7.39844)" fill="black"/>
<rect width="0.949402" height="3.046" transform="matrix(-0.707107 -0.707107 -0.707107 0.707107 72.3706 11.1187)" fill="black"/>
<rect width="0.949402" height="3.046" transform="matrix(-0.707107 -0.707107 -0.707107 0.707107 82.6362 7.39844)" fill="black"/>
<rect width="0.949402" height="3.046" transform="matrix(-0.707107 -0.707107 -0.707107 0.707107 78.916 11.1187)" fill="black"/>
<rect width="0.949402" height="3.046" transform="matrix(-0.707107 -0.707107 -0.707107 0.707107 85.4614 11.1187)" fill="black"/>
</g>
</svg>
