<svg width="82" height="10" viewBox="0 0 82 10" fill="none" xmlns="http://www.w3.org/2000/svg">
<g clip-path="url(#clip0_1303_92516)">
<mask id="mask0_1303_92516" style="mask-type:alpha" maskUnits="userSpaceOnUse" x="-3" y="-12" width="91" height="31">
<rect width="1" height="1" fill="black"/>
<rect x="3" width="1" height="1" fill="black"/>
<rect x="6" width="1" height="1" fill="black"/>
<rect x="9" width="1" height="1" fill="black"/>
<rect x="12" width="1" height="1" fill="black"/>
<rect x="15" width="1" height="1" fill="black"/>
<rect x="18" width="1" height="1" fill="black"/>
<rect x="21" width="1" height="1" fill="black"/>
<rect x="24" width="1" height="1" fill="black"/>
<rect x="27" width="1" height="1" fill="black"/>
<rect x="30" width="1" height="1" fill="black"/>
<rect x="33" width="1" height="1" fill="black"/>
<rect x="36" width="1" height="1" fill="black"/>
<rect x="39" width="1" height="1" fill="black"/>
<rect x="42" width="1" height="1" fill="black"/>
<rect x="45" width="1" height="1" fill="black"/>
<rect x="48" width="1" height="1" fill="black"/>
<rect x="51" width="1" height="1" fill="black"/>
<rect x="54" width="1" height="1" fill="black"/>
<rect x="57" width="1" height="1" fill="black"/>
<rect x="60" width="1" height="1" fill="black"/>
<rect x="63" width="1" height="1" fill="black"/>
<rect x="66" width="1" height="1" fill="black"/>
<rect x="69" width="1" height="1" fill="black"/>
<rect x="72" width="1" height="1" fill="black"/>
<rect x="75" width="1" height="1" fill="black"/>
<rect x="78" width="1" height="1" fill="black"/>
<rect x="81" width="1" height="1" fill="black"/>
<rect y="3" width="1" height="1" fill="black"/>
<rect x="3" y="3" width="1" height="1" fill="black"/>
<rect x="6" y="3" width="1" height="1" fill="black"/>
<rect x="9" y="3" width="1" height="1" fill="black"/>
<rect x="12" y="3" width="1" height="1" fill="black"/>
<rect x="15" y="3" width="1" height="1" fill="black"/>
<rect x="18" y="3" width="1" height="1" fill="black"/>
<rect x="21" y="3" width="1" height="1" fill="black"/>
<rect x="24" y="3" width="1" height="1" fill="black"/>
<rect x="27" y="3" width="1" height="1" fill="black"/>
<rect x="30" y="3" width="1" height="1" fill="black"/>
<rect x="33" y="3" width="1" height="1" fill="black"/>
<rect x="36" y="3" width="1" height="1" fill="black"/>
<rect x="39" y="3" width="1" height="1" fill="black"/>
<rect x="42" y="3" width="1" height="1" fill="black"/>
<rect x="45" y="3" width="1" height="1" fill="black"/>
<rect x="48" y="3" width="1" height="1" fill="black"/>
<rect x="51" y="3" width="1" height="1" fill="black"/>
<rect x="54" y="3" width="1" height="1" fill="black"/>
<rect x="57" y="3" width="1" height="1" fill="black"/>
<rect x="60" y="3" width="1" height="1" fill="black"/>
<rect x="63" y="3" width="1" height="1" fill="black"/>
<rect x="66" y="3" width="1" height="1" fill="black"/>
<rect x="69" y="3" width="1" height="1" fill="black"/>
<rect x="72" y="3" width="1" height="1" fill="black"/>
<rect x="75" y="3" width="1" height="1" fill="black"/>
<rect x="78" y="3" width="1" height="1" fill="black"/>
<rect x="81" y="3" width="1" height="1" fill="black"/>
<rect y="6" width="1" height="1" fill="black"/>
<rect x="3" y="6" width="1" height="1" fill="black"/>
<rect x="6" y="6" width="1" height="1" fill="black"/>
<rect x="9" y="6" width="1" height="1" fill="black"/>
<rect x="12" y="6" width="1" height="1" fill="black"/>
<rect x="15" y="6" width="1" height="1" fill="black"/>
<rect x="18" y="6" width="1" height="1" fill="black"/>
<rect x="21" y="6" width="1" height="1" fill="black"/>
<rect x="24" y="6" width="1" height="1" fill="black"/>
<rect x="27" y="6" width="1" height="1" fill="black"/>
<rect x="30" y="6" width="1" height="1" fill="black"/>
<rect x="33" y="6" width="1" height="1" fill="black"/>
<rect x="36" y="6" width="1" height="1" fill="black"/>
<rect x="39" y="6" width="1" height="1" fill="black"/>
<rect x="42" y="6" width="1" height="1" fill="black"/>
<rect x="45" y="6" width="1" height="1" fill="black"/>
<rect x="48" y="6" width="1" height="1" fill="black"/>
<rect x="51" y="6" width="1" height="1" fill="black"/>
<rect x="54" y="6" width="1" height="1" fill="black"/>
<rect x="57" y="6" width="1" height="1" fill="black"/>
<rect x="60" y="6" width="1" height="1" fill="black"/>
<rect x="63" y="6" width="1" height="1" fill="black"/>
<rect x="66" y="6" width="1" height="1" fill="black"/>
<rect x="69" y="6" width="1" height="1" fill="black"/>
<rect x="72" y="6" width="1" height="1" fill="black"/>
<rect x="75" y="6" width="1" height="1" fill="black"/>
<rect x="78" y="6" width="1" height="1" fill="black"/>
<rect x="81" y="6" width="1" height="1" fill="black"/>
<rect y="9" width="1" height="1" fill="black"/>
<rect x="3" y="9" width="1" height="1" fill="black"/>
<rect x="6" y="9" width="1" height="1" fill="black"/>
<rect x="9" y="9" width="1" height="1" fill="black"/>
<rect x="12" y="9" width="1" height="1" fill="black"/>
<rect x="15" y="9" width="1" height="1" fill="black"/>
<rect x="18" y="9" width="1" height="1" fill="black"/>
<rect x="21" y="9" width="1" height="1" fill="black"/>
<rect x="24" y="9" width="1" height="1" fill="black"/>
<rect x="27" y="9" width="1" height="1" fill="black"/>
<rect x="30" y="9" width="1" height="1" fill="black"/>
<rect x="33" y="9" width="1" height="1" fill="black"/>
<rect x="36" y="9" width="1" height="1" fill="black"/>
<rect x="39" y="9" width="1" height="1" fill="black"/>
<rect x="42" y="9" width="1" height="1" fill="black"/>
<rect x="45" y="9" width="1" height="1" fill="black"/>
<rect x="48" y="9" width="1" height="1" fill="black"/>
<rect x="51" y="9" width="1" height="1" fill="black"/>
<rect x="54" y="9" width="1" height="1" fill="black"/>
<rect x="57" y="9" width="1" height="1" fill="black"/>
<rect x="60" y="9" width="1" height="1" fill="black"/>
<rect x="63" y="9" width="1" height="1" fill="black"/>
<rect x="66" y="9" width="1" height="1" fill="black"/>
<rect x="69" y="9" width="1" height="1" fill="black"/>
<rect x="72" y="9" width="1" height="1" fill="black"/>
<rect x="75" y="9" width="1" height="1" fill="black"/>
<rect x="78" y="9" width="1" height="1" fill="black"/>
<rect x="81" y="9" width="1" height="1" fill="black"/>
</mask>
<g mask="url(#mask0_1303_92516)">
<rect y="-2" width="84" height="12" fill="black"/>
</g>
</g>
<defs>
<clipPath id="clip0_1303_92516">
<rect width="82" height="10" fill="white"/>
</clipPath>
</defs>
</svg>
