<?xml version="1.0" standalone="no"?>
<!DOCTYPE svg PUBLIC "-//W3C//DTD SVG 20010904//EN"
 "http://www.w3.org/TR/2001/REC-SVG-20010904/DTD/svg10.dtd">
<svg version="1.0" xmlns="http://www.w3.org/2000/svg"
 width="96.000000pt" height="96.000000pt" viewBox="0 0 96.000000 96.000000"
 preserveAspectRatio="xMidYMid meet">
<metadata>
Created by potrace 1.14, written by Peter Selinger 2001-2017
</metadata>
<g transform="translate(0.000000,96.000000) scale(0.100000,-0.100000)"
fill="#000000" stroke="none">
<path d="M48 910 l-48 -47 236 -237 c130 -130 240 -236 244 -236 4 0 28 20 53
45 l44 46 -222 222 c-122 122 -231 229 -241 238 -18 16 -22 14 -66 -31z"/>
<path d="M707 804 c-86 -86 -157 -158 -157 -160 0 -2 21 -25 46 -49 39 -39 48
-44 62 -33 8 7 79 78 158 156 l143 144 -26 26 c-15 15 -36 37 -48 50 l-21 23
-157 -157z"/>
<path d="M157 254 l-156 -156 26 -26 c15 -15 36 -37 48 -50 l21 -23 157 157
c86 86 157 158 157 160 0 4 -89 94 -94 94 -2 0 -74 -70 -159 -156z"/>
<path d="M596 366 c-25 -25 -46 -47 -46 -49 0 -3 71 -76 157 -161 l156 -156
48 49 48 50 -138 138 c-76 76 -147 146 -158 156 -19 17 -21 16 -67 -27z"/>
</g>
</svg>
